<?xml version="1.0" encoding="UTF-8"?>
<svg width="11px" height="14px" viewBox="0 0 11 14" version="1.1" xmlns="http://www.w3.org/2000/svg" xmlns:xlink="http://www.w3.org/1999/xlink">
    <!-- Generator: Sketch 53.2 (72643) - https://sketchapp.com -->
    <title>Combined Shape</title>
    <desc>Created with Sketch.</desc>
    <g id="Dashboard" stroke="none" stroke-width="1" fill="none" fill-rule="evenodd">
        <g id="seo-doctor-dashboard" transform="translate(-522.000000, -485.000000)" fill="#D8730A" fill-rule="nonzero">
            <g id="Group-10" transform="translate(333.500000, 264.000000)">
                <g id="Group-6" transform="translate(0.000000, 172.000000)">
                    <g id="Group-5" transform="translate(48.500000, 48.000000)">
                        <g id="Icon-2" transform="translate(145.000000, 7.500000) scale(1, -1) translate(-145.000000, -7.500000) translate(139.500000, 0.500000)">
                            <path d="M4.17595614,5.18987723 L3.07454116,6.3207003 C2.49652219,6.91415254 1.54685713,6.92666368 0.953404882,6.34864471 C0.359952637,5.77062573 0.3474415,4.82096067 0.925460475,4.22750843 L4.60023348,0.454617945 C4.87278408,0.174207009 5.254026,8.52345121e-14 5.67595614,8.52345121e-14 C6.09788628,8.52345121e-14 6.47912819,0.174207009 6.75167879,0.454617945 L10.4264518,4.22750843 C11.0044708,4.82096067 10.9919596,5.77062573 10.3985074,6.34864471 C9.80505515,6.92666368 8.85539009,6.91415254 8.27737111,6.3207003 L7.17595614,5.18987723 L7.17595614,11.7741044 C7.17595614,12.6025315 6.50438326,13.2741044 5.67595614,13.2741044 C4.84752901,13.2741044 4.17595614,12.6025315 4.17595614,11.7741044 L4.17595614,5.18987723 Z" id="Combined-Shape"></path>
                        </g>
                    </g>
                </g>
            </g>
        </g>
    </g>
</svg>