<?xml version="1.0" encoding="UTF-8"?>
<svg width="11px" height="14px" viewBox="0 0 11 14" version="1.1" xmlns="http://www.w3.org/2000/svg" xmlns:xlink="http://www.w3.org/1999/xlink">
    <!-- Generator: Sketch 53.2 (72643) - https://sketchapp.com -->
    <title>Combined Shape</title>
    <desc>Created with Sketch.</desc>
    <g id="Dashboard" stroke="none" stroke-width="1" fill="none" fill-rule="evenodd">
        <g id="seo-doctor-dashboard" transform="translate(-519.000000, -316.000000)" fill="#2AD80A" fill-rule="nonzero">
            <g id="Group-10" transform="translate(333.500000, 264.000000)">
                <g id="Group-6" transform="translate(1.500000, 0.000000)">
                    <g id="Group-5" transform="translate(48.500000, 49.000000)">
                        <g id="Icon-2" transform="translate(135.000000, 2.500000)">
                            <g id="Group-13" transform="translate(0.000250, 0.000000)">
                                <path d="M4.17595532,5.91577287 L3.07454034,7.04659594 C2.49652137,7.64004818 1.54685631,7.65255932 0.953404064,7.07454034 C0.35995182,6.49652137 0.347440683,5.54685631 0.925459657,4.95340406 L4.60023266,1.18051358 C4.87278327,0.900102645 5.25402518,0.725895635 5.67595532,0.725895635 C6.09788546,0.725895635 6.47912737,0.900102645 6.75167797,1.18051358 L10.426451,4.95340406 C11.00447,5.54685631 10.9919588,6.49652137 10.3985066,7.07454034 C9.80505433,7.65255932 8.85538927,7.64004818 8.2773703,7.04659594 L7.17595532,5.91577287 L7.17595532,12.5 C7.17595532,13.3284271 6.50438244,14 5.67595532,14 C4.84752819,14 4.17595532,13.3284271 4.17595532,12.5 L4.17595532,5.91577287 Z" id="Combined-Shape"></path>
                            </g>
                        </g>
                    </g>
                </g>
            </g>
        </g>
    </g>
</svg>