<?xml version="1.0" encoding="UTF-8"?>
<svg width="965px" height="368px" viewBox="0 0 965 368" version="1.1" xmlns="http://www.w3.org/2000/svg" xmlns:xlink="http://www.w3.org/1999/xlink">
    <!-- Generator: Sketch 55.1 (78136) - https://sketchapp.com -->
    <title>Group 2</title>
    <desc>Created with Sketch.</desc>
    <defs>
        <path d="M56.7418846,50 L53.0139626,53.7279221 L49.2860405,50 L3.00162636,50 C1.3438739,50 0,48.6626208 0,47.0034676 L0,2.99653242 C0,1.34159326 1.34023166,0 3.00162636,0 L102.998374,0 C104.656126,0 106,1.33737922 106,2.99653242 L106,47.0034676 C106,48.6584067 104.659768,50 102.998374,50 L56.7418846,50 Z" id="path-1"></path>
    </defs>
    <g id="Analytics-&amp;-Report" stroke="none" stroke-width="1" fill="none" fill-rule="evenodd">
        <g id="Autopilot-settings" transform="translate(-316.000000, -488.000000)">
            <g id="Group-3" transform="translate(276.000000, 322.000000)">
                <g id="legend2016">
                    <g id="Group-10" transform="translate(40.000000, 110.000000)">
                        <g id="Group-2" transform="translate(0.000000, 56.000000)">
                            <g id="xGridlines" transform="translate(63.000000, 70.000000)" stroke="#F6F7FA" stroke-dasharray="4" stroke-width="2">
                                <path d="M815,270.511994 L815,0" id="Path-2"></path>
                                <path d="M1,270.954094 L1,0.442100111" id="Path-2"></path>
                                <path d="M275,270.511994 L275,0" id="Path-2"></path>
                                <path d="M550,270.511994 L550,0" id="Path-2"></path>
                            </g>
                            <g id="Group" transform="translate(28.000000, 92.000000)" stroke-width="2">
                                <g id="yGridlines">
                                    <path d="M0,1 L934.87494,1" id="gridline" stroke="#F4F6F8"></path>
                                    <path d="M0,197 L934.87494,197" id="gridline" stroke="#DFE4E8"></path>
                                    <path d="M0,148 L934.87494,148" id="gridline" stroke="#F4F6F8"></path>
                                    <path d="M0,50 L934.87494,50" id="gridline" stroke="#F4F6F8"></path>
                                    <path d="M0,99 L934.87494,99" id="gridline" stroke="#F4F6F8"></path>
                                    <path d="M0,246 L936,246" id="gridline" stroke="#F4F6F8" stroke-linecap="round" stroke-linejoin="round"></path>
                                </g>
                            </g>
                            <g id="yValueLabels" opacity="0.85" transform="translate(0.000000, 71.000000)" fill="#637381" font-family="SFProText-Regular, SF Pro Text" font-size="13" font-weight="normal" letter-spacing="-0.208" line-spacing="20">
                                <text id="$20k-copy">
                                    <tspan x="0" y="12">$20k</tspan>
                                </text>
                                <text id="15k-copy">
                                    <tspan x="0" y="61">15k</tspan>
                                </text>
                                <text id="10k-copy">
                                    <tspan x="0" y="111">10k</tspan>
                                </text>
                                <text id="5k-copy">
                                    <tspan x="0" y="160">5k</tspan>
                                </text>
                                <text id="0-copy">
                                    <tspan x="0" y="209">0</tspan>
                                </text>
                                <text id="-5k-copy-2">
                                    <tspan x="0" y="258">-5k</tspan>
                                </text>
                            </g>
                            <rect id="Rectangle-3" fill-opacity="0.3" fill="#DFE3E8" x="357" y="0" width="9" height="338"></rect>
                            <g id="Page-1-Copy" style="mix-blend-mode: multiply;" transform="translate(60.000000, 338.000000)" fill="#DFE3E8" opacity="0.5">
                                <g id="xAxis" transform="translate(0.116160, 0.000000)">
                                    <g id="bottomAxis">
                                        <g id="ticks" transform="translate(0.883840, 0.000000)">
                                            <path d="M0,1.00292933 C0,0.449026756 0.443864822,0 1,0 C1.55228475,0 2,0.437881351 2,1.00292933 L2,5.99707067 C2,6.55097324 1.55613518,7 1,7 C0.44771525,7 0,6.56211865 0,5.99707067 L0,1.00292933 Z M805,1.0093689 C805,0.451909848 805.443865,0 806,0 C806.552285,0 807,0.443353176 807,1.0093689 L807,2.9906311 C807,3.54809015 806.556135,4 806,4 C805.447715,4 805,3.55664682 805,2.9906311 L805,1.0093689 Z M796,1.0093689 C796,0.451909848 796.443865,0 797,0 C797.552285,0 798,0.443353176 798,1.0093689 L798,2.9906311 C798,3.54809015 797.556135,4 797,4 C796.447715,4 796,3.55664682 796,2.9906311 L796,1.0093689 Z M787,1.0093689 C787,0.451909848 787.443865,0 788,0 C788.552285,0 789,0.443353176 789,1.0093689 L789,2.9906311 C789,3.54809015 788.556135,4 788,4 C787.447715,4 787,3.55664682 787,2.9906311 L787,1.0093689 Z M777,1.0093689 C777,0.451909848 777.443865,0 778,0 C778.552285,0 779,0.443353176 779,1.0093689 L779,2.9906311 C779,3.54809015 778.556135,4 778,4 C777.447715,4 777,3.55664682 777,2.9906311 L777,1.0093689 Z M768,1.0093689 C768,0.451909848 768.443865,0 769,0 C769.552285,0 770,0.443353176 770,1.0093689 L770,2.9906311 C770,3.54809015 769.556135,4 769,4 C768.447715,4 768,3.55664682 768,2.9906311 L768,1.0093689 Z M759,1.0093689 C759,0.451909848 759.443865,0 760,0 C760.552285,0 761,0.443353176 761,1.0093689 L761,2.9906311 C761,3.54809015 760.556135,4 760,4 C759.447715,4 759,3.55664682 759,2.9906311 L759,1.0093689 Z M750,1.0093689 C750,0.451909848 750.443865,0 751,0 C751.552285,0 752,0.443353176 752,1.0093689 L752,2.9906311 C752,3.54809015 751.556135,4 751,4 C750.447715,4 750,3.55664682 750,2.9906311 L750,1.0093689 Z M741,1.0093689 C741,0.451909848 741.443865,0 742,0 C742.552285,0 743,0.443353176 743,1.0093689 L743,2.9906311 C743,3.54809015 742.556135,4 742,4 C741.447715,4 741,3.55664682 741,2.9906311 L741,1.0093689 Z M732,1.0093689 C732,0.451909848 732.443865,0 733,0 C733.552285,0 734,0.443353176 734,1.0093689 L734,2.9906311 C734,3.54809015 733.556135,4 733,4 C732.447715,4 732,3.55664682 732,2.9906311 L732,1.0093689 Z M723,1.0093689 C723,0.451909848 723.443865,0 724,0 C724.552285,0 725,0.443353176 725,1.0093689 L725,2.9906311 C725,3.54809015 724.556135,4 724,4 C723.447715,4 723,3.55664682 723,2.9906311 L723,1.0093689 Z M713,1.0093689 C713,0.451909848 713.443865,0 714,0 C714.552285,0 715,0.443353176 715,1.0093689 L715,2.9906311 C715,3.54809015 714.556135,4 714,4 C713.447715,4 713,3.55664682 713,2.9906311 L713,1.0093689 Z M704,1.0093689 C704,0.451909848 704.443865,0 705,0 C705.552285,0 706,0.443353176 706,1.0093689 L706,2.9906311 C706,3.54809015 705.556135,4 705,4 C704.447715,4 704,3.55664682 704,2.9906311 L704,1.0093689 Z M695,1.0093689 C695,0.451909848 695.443865,0 696,0 C696.552285,0 697,0.443353176 697,1.0093689 L697,2.9906311 C697,3.54809015 696.556135,4 696,4 C695.447715,4 695,3.55664682 695,2.9906311 L695,1.0093689 Z M686,1.0093689 C686,0.451909848 686.443865,0 687,0 C687.552285,0 688,0.443353176 688,1.0093689 L688,2.9906311 C688,3.54809015 687.556135,4 687,4 C686.447715,4 686,3.55664682 686,2.9906311 L686,1.0093689 Z M677,1.0093689 C677,0.451909848 677.443865,0 678,0 C678.552285,0 679,0.443353176 679,1.0093689 L679,2.9906311 C679,3.54809015 678.556135,4 678,4 C677.447715,4 677,3.55664682 677,2.9906311 L677,1.0093689 Z M668,1.0093689 C668,0.451909848 668.443865,0 669,0 C669.552285,0 670,0.443353176 670,1.0093689 L670,2.9906311 C670,3.54809015 669.556135,4 669,4 C668.447715,4 668,3.55664682 668,2.9906311 L668,1.0093689 Z M659,1.0093689 C659,0.451909848 659.443865,0 660,0 C660.552285,0 661,0.443353176 661,1.0093689 L661,2.9906311 C661,3.54809015 660.556135,4 660,4 C659.447715,4 659,3.55664682 659,2.9906311 L659,1.0093689 Z M649,1.0093689 C649,0.451909848 649.443865,0 650,0 C650.552285,0 651,0.443353176 651,1.0093689 L651,2.9906311 C651,3.54809015 650.556135,4 650,4 C649.447715,4 649,3.55664682 649,2.9906311 L649,1.0093689 Z M640,1.0093689 C640,0.451909848 640.443865,0 641,0 C641.552285,0 642,0.443353176 642,1.0093689 L642,2.9906311 C642,3.54809015 641.556135,4 641,4 C640.447715,4 640,3.55664682 640,2.9906311 L640,1.0093689 Z M631,1.0093689 C631,0.451909848 631.443865,0 632,0 C632.552285,0 633,0.443353176 633,1.0093689 L633,2.9906311 C633,3.54809015 632.556135,4 632,4 C631.447715,4 631,3.55664682 631,2.9906311 L631,1.0093689 Z M622,1.0093689 C622,0.451909848 622.443865,0 623,0 C623.552285,0 624,0.443353176 624,1.0093689 L624,2.9906311 C624,3.54809015 623.556135,4 623,4 C622.447715,4 622,3.55664682 622,2.9906311 L622,1.0093689 Z M613,1.0093689 C613,0.451909848 613.443865,0 614,0 C614.552285,0 615,0.443353176 615,1.0093689 L615,2.9906311 C615,3.54809015 614.556135,4 614,4 C613.447715,4 613,3.55664682 613,2.9906311 L613,1.0093689 Z M604,1.0093689 C604,0.451909848 604.443865,0 605,0 C605.552285,0 606,0.443353176 606,1.0093689 L606,2.9906311 C606,3.54809015 605.556135,4 605,4 C604.447715,4 604,3.55664682 604,2.9906311 L604,1.0093689 Z M594,1.0093689 C594,0.451909848 594.443865,0 595,0 C595.552285,0 596,0.443353176 596,1.0093689 L596,2.9906311 C596,3.54809015 595.556135,4 595,4 C594.447715,4 594,3.55664682 594,2.9906311 L594,1.0093689 Z M585,1.0093689 C585,0.451909848 585.443865,0 586,0 C586.552285,0 587,0.443353176 587,1.0093689 L587,2.9906311 C587,3.54809015 586.556135,4 586,4 C585.447715,4 585,3.55664682 585,2.9906311 L585,1.0093689 Z M576,1.0093689 C576,0.451909848 576.443865,0 577,0 C577.552285,0 578,0.443353176 578,1.0093689 L578,2.9906311 C578,3.54809015 577.556135,4 577,4 C576.447715,4 576,3.55664682 576,2.9906311 L576,1.0093689 Z M567,1.0093689 C567,0.451909848 567.443865,0 568,0 C568.552285,0 569,0.443353176 569,1.0093689 L569,2.9906311 C569,3.54809015 568.556135,4 568,4 C567.447715,4 567,3.55664682 567,2.9906311 L567,1.0093689 Z M558,1.0093689 C558,0.451909848 558.443865,0 559,0 C559.552285,0 560,0.443353176 560,1.0093689 L560,2.9906311 C560,3.54809015 559.556135,4 559,4 C558.447715,4 558,3.55664682 558,2.9906311 L558,1.0093689 Z M549,1.00292933 C549,0.449026756 549.443865,0 550,0 C550.552285,0 551,0.437881351 551,1.00292933 L551,5.99707067 C551,6.55097324 550.556135,7 550,7 C549.447715,7 549,6.56211865 549,5.99707067 L549,1.00292933 Z M540,1.0093689 C540,0.451909848 540.443865,0 541,0 C541.552285,0 542,0.443353176 542,1.0093689 L542,2.9906311 C542,3.54809015 541.556135,4 541,4 C540.447715,4 540,3.55664682 540,2.9906311 L540,1.0093689 Z M530,1.0093689 C530,0.451909848 530.443865,0 531,0 C531.552285,0 532,0.443353176 532,1.0093689 L532,2.9906311 C532,3.54809015 531.556135,4 531,4 C530.447715,4 530,3.55664682 530,2.9906311 L530,1.0093689 Z M521,1.0093689 C521,0.451909848 521.443865,0 522,0 C522.552285,0 523,0.443353176 523,1.0093689 L523,2.9906311 C523,3.54809015 522.556135,4 522,4 C521.447715,4 521,3.55664682 521,2.9906311 L521,1.0093689 Z M512,1.0093689 C512,0.451909848 512.443865,0 513,0 C513.552285,0 514,0.443353176 514,1.0093689 L514,2.9906311 C514,3.54809015 513.556135,4 513,4 C512.447715,4 512,3.55664682 512,2.9906311 L512,1.0093689 Z M503,1.0093689 C503,0.451909848 503.443865,0 504,0 C504.552285,0 505,0.443353176 505,1.0093689 L505,2.9906311 C505,3.54809015 504.556135,4 504,4 C503.447715,4 503,3.55664682 503,2.9906311 L503,1.0093689 Z M494,1.0093689 C494,0.451909848 494.443865,0 495,0 C495.552285,0 496,0.443353176 496,1.0093689 L496,2.9906311 C496,3.54809015 495.556135,4 495,4 C494.447715,4 494,3.55664682 494,2.9906311 L494,1.0093689 Z M485,1.0093689 C485,0.451909848 485.443865,0 486,0 C486.552285,0 487,0.443353176 487,1.0093689 L487,2.9906311 C487,3.54809015 486.556135,4 486,4 C485.447715,4 485,3.55664682 485,2.9906311 L485,1.0093689 Z M476,1.0093689 C476,0.451909848 476.443865,0 477,0 C477.552285,0 478,0.443353176 478,1.0093689 L478,2.9906311 C478,3.54809015 477.556135,4 477,4 C476.447715,4 476,3.55664682 476,2.9906311 L476,1.0093689 Z M466,1.0093689 C466,0.451909848 466.443865,0 467,0 C467.552285,0 468,0.443353176 468,1.0093689 L468,2.9906311 C468,3.54809015 467.556135,4 467,4 C466.447715,4 466,3.55664682 466,2.9906311 L466,1.0093689 Z M457,1.0093689 C457,0.451909848 457.443865,0 458,0 C458.552285,0 459,0.443353176 459,1.0093689 L459,2.9906311 C459,3.54809015 458.556135,4 458,4 C457.447715,4 457,3.55664682 457,2.9906311 L457,1.0093689 Z M448,1.0093689 C448,0.451909848 448.443865,0 449,0 C449.552285,0 450,0.443353176 450,1.0093689 L450,2.9906311 C450,3.54809015 449.556135,4 449,4 C448.447715,4 448,3.55664682 448,2.9906311 L448,1.0093689 Z M439,1.0093689 C439,0.451909848 439.443865,0 440,0 C440.552285,0 441,0.443353176 441,1.0093689 L441,2.9906311 C441,3.54809015 440.556135,4 440,4 C439.447715,4 439,3.55664682 439,2.9906311 L439,1.0093689 Z M430,1.0093689 C430,0.451909848 430.443865,0 431,0 C431.552285,0 432,0.443353176 432,1.0093689 L432,2.9906311 C432,3.54809015 431.556135,4 431,4 C430.447715,4 430,3.55664682 430,2.9906311 L430,1.0093689 Z M421,1.0093689 C421,0.451909848 421.443865,0 422,0 C422.552285,0 423,0.443353176 423,1.0093689 L423,2.9906311 C423,3.54809015 422.556135,4 422,4 C421.447715,4 421,3.55664682 421,2.9906311 L421,1.0093689 Z M412,1.0093689 C412,0.451909848 412.443865,0 413,0 C413.552285,0 414,0.443353176 414,1.0093689 L414,2.9906311 C414,3.54809015 413.556135,4 413,4 C412.447715,4 412,3.55664682 412,2.9906311 L412,1.0093689 Z M402,1.0093689 C402,0.451909848 402.443865,0 403,0 C403.552285,0 404,0.443353176 404,1.0093689 L404,2.9906311 C404,3.54809015 403.556135,4 403,4 C402.447715,4 402,3.55664682 402,2.9906311 L402,1.0093689 Z M393,1.0093689 C393,0.451909848 393.443865,0 394,0 C394.552285,0 395,0.443353176 395,1.0093689 L395,2.9906311 C395,3.54809015 394.556135,4 394,4 C393.447715,4 393,3.55664682 393,2.9906311 L393,1.0093689 Z M384,1.0093689 C384,0.451909848 384.443865,0 385,0 C385.552285,0 386,0.443353176 386,1.0093689 L386,2.9906311 C386,3.54809015 385.556135,4 385,4 C384.447715,4 384,3.55664682 384,2.9906311 L384,1.0093689 Z M375,1.0093689 C375,0.451909848 375.443865,0 376,0 C376.552285,0 377,0.443353176 377,1.0093689 L377,2.9906311 C377,3.54809015 376.556135,4 376,4 C375.447715,4 375,3.55664682 375,2.9906311 L375,1.0093689 Z M366,1.0093689 C366,0.451909848 366.443865,0 367,0 C367.552285,0 368,0.443353176 368,1.0093689 L368,2.9906311 C368,3.54809015 367.556135,4 367,4 C366.447715,4 366,3.55664682 366,2.9906311 L366,1.0093689 Z M357,1.0093689 C357,0.451909848 357.443865,0 358,0 C358.552285,0 359,0.443353176 359,1.0093689 L359,2.9906311 C359,3.54809015 358.556135,4 358,4 C357.447715,4 357,3.55664682 357,2.9906311 L357,1.0093689 Z M348,1.0093689 C348,0.451909848 348.443865,0 349,0 C349.552285,0 350,0.443353176 350,1.0093689 L350,2.9906311 C350,3.54809015 349.556135,4 349,4 C348.447715,4 348,3.55664682 348,2.9906311 L348,1.0093689 Z M338,1.0093689 C338,0.451909848 338.443865,0 339,0 C339.552285,0 340,0.443353176 340,1.0093689 L340,2.9906311 C340,3.54809015 339.556135,4 339,4 C338.447715,4 338,3.55664682 338,2.9906311 L338,1.0093689 Z M329,1.0093689 C329,0.451909848 329.443865,0 330,0 C330.552285,0 331,0.443353176 331,1.0093689 L331,2.9906311 C331,3.54809015 330.556135,4 330,4 C329.447715,4 329,3.55664682 329,2.9906311 L329,1.0093689 Z M320,1.0093689 C320,0.451909848 320.443865,0 321,0 C321.552285,0 322,0.443353176 322,1.0093689 L322,2.9906311 C322,3.54809015 321.556135,4 321,4 C320.447715,4 320,3.55664682 320,2.9906311 L320,1.0093689 Z M311,1.0093689 C311,0.451909848 311.443865,0 312,0 C312.552285,0 313,0.443353176 313,1.0093689 L313,2.9906311 C313,3.54809015 312.556135,4 312,4 C311.447715,4 311,3.55664682 311,2.9906311 L311,1.0093689 Z M302,1.0093689 C302,0.451909848 302.443865,0 303,0 C303.552285,0 304,0.443353176 304,1.0093689 L304,2.9906311 C304,3.54809015 303.556135,4 303,4 C302.447715,4 302,3.55664682 302,2.9906311 L302,1.0093689 Z M293,1.0093689 C293,0.451909848 293.443865,0 294,0 C294.552285,0 295,0.443353176 295,1.0093689 L295,2.9906311 C295,3.54809015 294.556135,4 294,4 C293.447715,4 293,3.55664682 293,2.9906311 L293,1.0093689 Z M284,1.0093689 C284,0.451909848 284.443865,0 285,0 C285.552285,0 286,0.443353176 286,1.0093689 L286,2.9906311 C286,3.54809015 285.556135,4 285,4 C284.447715,4 284,3.55664682 284,2.9906311 L284,1.0093689 Z M274,1.00292933 C274,0.449026756 274.443865,0 275,0 C275.552285,0 276,0.437881351 276,1.00292933 L276,5.99707067 C276,6.55097324 275.556135,7 275,7 C274.447715,7 274,6.56211865 274,5.99707067 L274,1.00292933 Z M265,1.0093689 C265,0.451909848 265.443865,0 266,0 C266.552285,0 267,0.443353176 267,1.0093689 L267,2.9906311 C267,3.54809015 266.556135,4 266,4 C265.447715,4 265,3.55664682 265,2.9906311 L265,1.0093689 Z M256,1.0093689 C256,0.451909848 256.443865,0 257,0 C257.552285,0 258,0.443353176 258,1.0093689 L258,2.9906311 C258,3.54809015 257.556135,4 257,4 C256.447715,4 256,3.55664682 256,2.9906311 L256,1.0093689 Z M247,1.0093689 C247,0.451909848 247.443865,0 248,0 C248.552285,0 249,0.443353176 249,1.0093689 L249,2.9906311 C249,3.54809015 248.556135,4 248,4 C247.447715,4 247,3.55664682 247,2.9906311 L247,1.0093689 Z M238,1.0093689 C238,0.451909848 238.443865,0 239,0 C239.552285,0 240,0.443353176 240,1.0093689 L240,2.9906311 C240,3.54809015 239.556135,4 239,4 C238.447715,4 238,3.55664682 238,2.9906311 L238,1.0093689 Z M229,1.0093689 C229,0.451909848 229.443865,0 230,0 C230.552285,0 231,0.443353176 231,1.0093689 L231,2.9906311 C231,3.54809015 230.556135,4 230,4 C229.447715,4 229,3.55664682 229,2.9906311 L229,1.0093689 Z M220,1.0093689 C220,0.451909848 220.443865,0 221,0 C221.552285,0 222,0.443353176 222,1.0093689 L222,2.9906311 C222,3.54809015 221.556135,4 221,4 C220.447715,4 220,3.55664682 220,2.9906311 L220,1.0093689 Z M210,1.0093689 C210,0.451909848 210.443865,0 211,0 C211.552285,0 212,0.443353176 212,1.0093689 L212,2.9906311 C212,3.54809015 211.556135,4 211,4 C210.447715,4 210,3.55664682 210,2.9906311 L210,1.0093689 Z M201,1.0093689 C201,0.451909848 201.443865,0 202,0 C202.552285,0 203,0.443353176 203,1.0093689 L203,2.9906311 C203,3.54809015 202.556135,4 202,4 C201.447715,4 201,3.55664682 201,2.9906311 L201,1.0093689 Z M192,1.0093689 C192,0.451909848 192.443865,0 193,0 C193.552285,0 194,0.443353176 194,1.0093689 L194,2.9906311 C194,3.54809015 193.556135,4 193,4 C192.447715,4 192,3.55664682 192,2.9906311 L192,1.0093689 Z M183,1.0093689 C183,0.451909848 183.443865,0 184,0 C184.552285,0 185,0.443353176 185,1.0093689 L185,2.9906311 C185,3.54809015 184.556135,4 184,4 C183.447715,4 183,3.55664682 183,2.9906311 L183,1.0093689 Z M174,1.0093689 C174,0.451909848 174.443865,0 175,0 C175.552285,0 176,0.443353176 176,1.0093689 L176,2.9906311 C176,3.54809015 175.556135,4 175,4 C174.447715,4 174,3.55664682 174,2.9906311 L174,1.0093689 Z M165,1.0093689 C165,0.451909848 165.443865,0 166,0 C166.552285,0 167,0.443353176 167,1.0093689 L167,2.9906311 C167,3.54809015 166.556135,4 166,4 C165.447715,4 165,3.55664682 165,2.9906311 L165,1.0093689 Z M155,1.0093689 C155,0.451909848 155.443865,0 156,0 C156.552285,0 157,0.443353176 157,1.0093689 L157,2.9906311 C157,3.54809015 156.556135,4 156,4 C155.447715,4 155,3.55664682 155,2.9906311 L155,1.0093689 Z M146,1.0093689 C146,0.451909848 146.443865,0 147,0 C147.552285,0 148,0.443353176 148,1.0093689 L148,2.9906311 C148,3.54809015 147.556135,4 147,4 C146.447715,4 146,3.55664682 146,2.9906311 L146,1.0093689 Z M137,1.0093689 C137,0.451909848 137.443865,0 138,0 C138.552285,0 139,0.443353176 139,1.0093689 L139,2.9906311 C139,3.54809015 138.556135,4 138,4 C137.447715,4 137,3.55664682 137,2.9906311 L137,1.0093689 Z M128,1.0093689 C128,0.451909848 128.443865,0 129,0 C129.552285,0 130,0.443353176 130,1.0093689 L130,2.9906311 C130,3.54809015 129.556135,4 129,4 C128.447715,4 128,3.55664682 128,2.9906311 L128,1.0093689 Z M119,1.0093689 C119,0.451909848 119.443865,0 120,0 C120.552285,0 121,0.443353176 121,1.0093689 L121,2.9906311 C121,3.54809015 120.556135,4 120,4 C119.447715,4 119,3.55664682 119,2.9906311 L119,1.0093689 Z M110,1.0093689 C110,0.451909848 110.443865,0 111,0 C111.552285,0 112,0.443353176 112,1.0093689 L112,2.9906311 C112,3.54809015 111.556135,4 111,4 C110.447715,4 110,3.55664682 110,2.9906311 L110,1.0093689 Z M101,1.0093689 C101,0.451909848 101.443865,0 102,0 C102.552285,0 103,0.443353176 103,1.0093689 L103,2.9906311 C103,3.54809015 102.556135,4 102,4 C101.447715,4 101,3.55664682 101,2.9906311 L101,1.0093689 Z M91,1.0093689 C91,0.451909848 91.4438648,0 92,0 C92.5522847,0 93,0.443353176 93,1.0093689 L93,2.9906311 C93,3.54809015 92.5561352,4 92,4 C91.4477153,4 91,3.55664682 91,2.9906311 L91,1.0093689 Z M82,1.0093689 C82,0.451909848 82.4438648,0 83,0 C83.5522847,0 84,0.443353176 84,1.0093689 L84,2.9906311 C84,3.54809015 83.5561352,4 83,4 C82.4477153,4 82,3.55664682 82,2.9906311 L82,1.0093689 Z M73,1.0093689 C73,0.451909848 73.4438648,0 74,0 C74.5522847,0 75,0.443353176 75,1.0093689 L75,2.9906311 C75,3.54809015 74.5561352,4 74,4 C73.4477153,4 73,3.55664682 73,2.9906311 L73,1.0093689 Z M64,1.0093689 C64,0.451909848 64.4438648,0 65,0 C65.5522847,0 66,0.443353176 66,1.0093689 L66,2.9906311 C66,3.54809015 65.5561352,4 65,4 C64.4477153,4 64,3.55664682 64,2.9906311 L64,1.0093689 Z M55,1.0093689 C55,0.451909848 55.4438648,0 56,0 C56.5522847,0 57,0.443353176 57,1.0093689 L57,2.9906311 C57,3.54809015 56.5561352,4 56,4 C55.4477153,4 55,3.55664682 55,2.9906311 L55,1.0093689 Z M46,1.0093689 C46,0.451909848 46.4438648,0 47,0 C47.5522847,0 48,0.443353176 48,1.0093689 L48,2.9906311 C48,3.54809015 47.5561352,4 47,4 C46.4477153,4 46,3.55664682 46,2.9906311 L46,1.0093689 Z M37,1.0093689 C37,0.451909848 37.4438648,0 38,0 C38.5522847,0 39,0.443353176 39,1.0093689 L39,2.9906311 C39,3.54809015 38.5561352,4 38,4 C37.4477153,4 37,3.55664682 37,2.9906311 L37,1.0093689 Z M27,1.0093689 C27,0.451909848 27.4438648,0 28,0 C28.5522847,0 29,0.443353176 29,1.0093689 L29,2.9906311 C29,3.54809015 28.5561352,4 28,4 C27.4477153,4 27,3.55664682 27,2.9906311 L27,1.0093689 Z M18,1.0093689 C18,0.451909848 18.4438648,0 19,0 C19.5522847,0 20,0.443353176 20,1.0093689 L20,2.9906311 C20,3.54809015 19.5561352,4 19,4 C18.4477153,4 18,3.55664682 18,2.9906311 L18,1.0093689 Z M9,1.0093689 C9,0.451909848 9.44386482,0 10,0 C10.5522847,0 11,0.443353176 11,1.0093689 L11,2.9906311 C11,3.54809015 10.5561352,4 10,4 C9.44771525,4 9,3.55664682 9,2.9906311 L9,1.0093689 Z M814.00006,1.00292933 C814.00006,0.449026756 814.443925,0 815.00006,0 C815.552345,0 816.00006,0.437881351 816.00006,1.00292933 L816.00006,5.99707067 C816.00006,6.55097324 815.556195,7 815.00006,7 C814.447775,7 814.00006,6.56211865 814.00006,5.99707067 L814.00006,1.00292933 Z" id="Combined-Shape"></path>
                                        </g>
                                    </g>
                                </g>
                            </g>
                            <g id="xAxisLabels" opacity="0.85" transform="translate(42.000000, 352.000000)" fill="#637381" font-family="SFProText-Regular, SF Pro Text" font-size="13" font-weight="normal" line-spacing="16">
                                <text id="Sep-1">
                                    <tspan x="2.74354384" y="12">Sep 1</tspan>
                                </text>
                                <text id="Oct-1">
                                    <tspan x="278.549696" y="12">Oct 1</tspan>
                                </text>
                                <text id="Nov-1">
                                    <tspan x="551.668502" y="12">Nov 1</tspan>
                                </text>
                            </g>
                            <polyline id="Stroke-1" stroke="#9C6ADE" stroke-width="3" stroke-linecap="round" stroke-linejoin="round" points="62 294.893 89.1958603 285.925475 116.391721 271.125081 143.587581 157.464181 170.782447 256.981841 197.978307 246.33713 225.174168 257.126992 252.370028 281.478497 279.565888 229.27696 306.761749 279.436446 333.956615 239.046791 361.152475 124 388.348335 235.765988 415.544196 250.784108 442.740056 253.554895 469.935916 280.311326 497.130782 251.951278 524.326643 279.873886 551.522503 280.603616 578.718363 260.481364 605.914224 289.716292 633.110084 237.51575 660.30495 289.571141 687.50081 233.432642 714.696671 163.66092 741.892531 197.197675 769.088391 259.606483 796.284251 235.692419 823.479118 265.000917 850.674978 262.887285 877.870838 266.605527"></polyline>
                            <g id="toolTip" opacity="0.9" transform="translate(307.000000, 59.000000)">
                                <g id="Tooltip-/-_Resources-/-Top-center">
                                    <mask id="mask-2" fill="white">
                                        <use xlink:href="#path-1"></use>
                                    </mask>
                                    <use id="Tooltip" fill="#212B36" fill-rule="evenodd" xlink:href="#path-1"></use>
                                    <g id="Color-/-Default" mask="url(#mask-2)" fill="#212B36" fill-rule="evenodd">
                                        <rect id="Rectangle-5" x="0" y="0" width="107" height="54"></rect>
                                    </g>
                                </g>
                                <text id="Traffic-at-Oct-7" font-family="SFProText-Regular, SF Pro Text" font-size="12" font-weight="normal" line-spacing="16" fill="#FFFFFF">
                                    <tspan x="13" y="17">Traffic at Oct 7</tspan>
                                </text>
                                <text id="$14,921" font-family="SFProDisplay-Regular, SF Pro Display" font-size="20" font-weight="normal" line-spacing="24" fill="#FFFFFF">
                                    <tspan x="19" y="40">$14,921</tspan>
                                </text>
                            </g>
                            <g id="Dots" transform="translate(57.000000, 118.000000)" fill="#9C6ADE" stroke="#FFFFFF" stroke-width="1.5">
                                <g id="_ignore-/-Dataviz-/-Dot-Purple" transform="translate(0.000000, 172.000000)">
                                    <circle id="Oval-2-Copy" cx="5" cy="5" r="3.75"></circle>
                                </g>
                                <g id="_ignore-/-Dataviz-/-Dot-Purple" transform="translate(28.000000, 163.000000)">
                                    <circle id="Oval-2-Copy" cx="5" cy="5" r="3.75"></circle>
                                </g>
                                <g id="_ignore-/-Dataviz-/-Dot-Purple" transform="translate(54.000000, 149.000000)">
                                    <circle id="Oval-2-Copy" cx="5" cy="5" r="3.75"></circle>
                                </g>
                                <g id="_ignore-/-Dataviz-/-Dot-Purple" transform="translate(82.000000, 36.000000)">
                                    <circle id="Oval-2-Copy" cx="5" cy="5" r="3.75"></circle>
                                </g>
                                <g id="_ignore-/-Dataviz-/-Dot-Purple" transform="translate(109.000000, 135.000000)">
                                    <circle id="Oval-2-Copy" cx="5" cy="5" r="3.75"></circle>
                                </g>
                                <g id="_ignore-/-Dataviz-/-Dot-Purple" transform="translate(135.000000, 123.000000)">
                                    <circle id="Oval-2-Copy" cx="5" cy="5" r="3.75"></circle>
                                </g>
                                <g id="_ignore-/-Dataviz-/-Dot-Purple" transform="translate(163.000000, 132.000000)">
                                    <circle id="Oval-2-Copy" cx="5" cy="5" r="3.75"></circle>
                                </g>
                                <g id="_ignore-/-Dataviz-/-Dot-Purple" transform="translate(191.000000, 159.000000)">
                                    <circle id="Oval-2-Copy" cx="5" cy="5" r="3.75"></circle>
                                </g>
                                <g id="_ignore-/-Dataviz-/-Dot-Purple" transform="translate(217.000000, 107.000000)">
                                    <circle id="Oval-2-Copy" cx="5" cy="5" r="3.75"></circle>
                                </g>
                                <g id="_ignore-/-Dataviz-/-Dot-Purple" transform="translate(246.000000, 155.000000)">
                                    <circle id="Oval-2-Copy" cx="5" cy="5" r="3.75"></circle>
                                </g>
                                <g id="_ignore-/-Dataviz-/-Dot-Purple" transform="translate(273.000000, 116.000000)">
                                    <circle id="Oval-2-Copy" cx="5" cy="5" r="3.75"></circle>
                                </g>
                                <g id="_ignore-/-Dataviz-/-Dot-Purple" transform="translate(299.000000, 0.000000)">
                                    <circle id="Oval-2-Copy" cx="5" cy="5" r="3.75"></circle>
                                </g>
                                <g id="_ignore-/-Dataviz-/-Dot-Purple" transform="translate(326.000000, 114.000000)">
                                    <circle id="Oval-2-Copy" cx="5" cy="5" r="3.75"></circle>
                                </g>
                                <g id="_ignore-/-Dataviz-/-Dot-Purple" transform="translate(352.000000, 128.000000)">
                                    <circle id="Oval-2-Copy" cx="5" cy="5" r="3.75"></circle>
                                </g>
                                <g id="_ignore-/-Dataviz-/-Dot-Purple" transform="translate(381.000000, 131.000000)">
                                    <circle id="Oval-2-Copy" cx="5" cy="5" r="3.75"></circle>
                                </g>
                                <g id="_ignore-/-Dataviz-/-Dot-Purple" transform="translate(407.000000, 155.000000)">
                                    <circle id="Oval-2-Copy" cx="5" cy="5" r="3.75"></circle>
                                </g>
                                <g id="_ignore-/-Dataviz-/-Dot-Purple" transform="translate(435.000000, 131.000000)">
                                    <circle id="Oval-2-Copy" cx="5" cy="5" r="3.75"></circle>
                                </g>
                                <g id="_ignore-/-Dataviz-/-Dot-Purple" transform="translate(462.000000, 156.000000)">
                                    <circle id="Oval-2-Copy" cx="5" cy="5" r="3.75"></circle>
                                </g>
                                <g id="_ignore-/-Dataviz-/-Dot-Purple" transform="translate(488.000000, 158.000000)">
                                    <circle id="Oval-2-Copy" cx="5" cy="5" r="3.75"></circle>
                                </g>
                                <g id="_ignore-/-Dataviz-/-Dot-Purple" transform="translate(516.000000, 137.000000)">
                                    <circle id="Oval-2-Copy" cx="5" cy="5" r="3.75"></circle>
                                </g>
                                <g id="_ignore-/-Dataviz-/-Dot-Purple" transform="translate(544.000000, 165.000000)">
                                    <circle id="Oval-2-Copy" cx="5" cy="5" r="3.75"></circle>
                                </g>
                                <g id="_ignore-/-Dataviz-/-Dot-Purple" transform="translate(571.000000, 116.000000)">
                                    <circle id="Oval-2-Copy" cx="5" cy="5" r="3.75"></circle>
                                </g>
                                <g id="_ignore-/-Dataviz-/-Dot-Purple" transform="translate(598.000000, 166.000000)">
                                    <circle id="Oval-2-Copy" cx="5" cy="5" r="3.75"></circle>
                                </g>
                                <g id="_ignore-/-Dataviz-/-Dot-Purple" transform="translate(624.000000, 112.000000)">
                                    <circle id="Oval-2-Copy" cx="5" cy="5" r="3.75"></circle>
                                </g>
                                <g id="_ignore-/-Dataviz-/-Dot-Purple" transform="translate(653.000000, 40.000000)">
                                    <circle id="Oval-2-Copy" cx="5" cy="5" r="3.75"></circle>
                                </g>
                                <g id="_ignore-/-Dataviz-/-Dot-Purple" transform="translate(680.000000, 75.000000)">
                                    <circle id="Oval-2-Copy" cx="5" cy="5" r="3.75"></circle>
                                </g>
                                <g id="_ignore-/-Dataviz-/-Dot-Purple" transform="translate(707.000000, 135.000000)">
                                    <circle id="Oval-2-Copy" cx="5" cy="5" r="3.75"></circle>
                                </g>
                                <g id="_ignore-/-Dataviz-/-Dot-Purple" transform="translate(734.000000, 114.000000)">
                                    <circle id="Oval-2-Copy" cx="5" cy="5" r="3.75"></circle>
                                </g>
                                <g id="_ignore-/-Dataviz-/-Dot-Purple" transform="translate(761.000000, 142.000000)">
                                    <circle id="Oval-2-Copy" cx="5" cy="5" r="3.75"></circle>
                                </g>
                                <g id="_ignore-/-Dataviz-/-Dot-Purple" transform="translate(790.000000, 140.000000)">
                                    <circle id="Oval-2-Copy" cx="5" cy="5" r="3.75"></circle>
                                </g>
                                <g id="_ignore-/-Dataviz-/-Dot-Purple" transform="translate(816.000000, 144.000000)">
                                    <circle id="Oval-2-Copy" cx="5" cy="5" r="3.75"></circle>
                                </g>
                                <g id="_ignore-/-Dataviz-/-Dot-Purple" transform="translate(135.000000, 123.000000)">
                                    <circle id="Oval-2-Copy" cx="5" cy="5" r="3.75"></circle>
                                </g>
                            </g>
                        </g>
                    </g>
                </g>
            </g>
        </g>
    </g>
</svg>