<?xml version="1.0" encoding="UTF-8"?>
<svg width="139px" height="51px" viewBox="0 0 139 51" version="1.1" xmlns="http://www.w3.org/2000/svg" xmlns:xlink="http://www.w3.org/1999/xlink">
    <!-- Generator: Sketch 51.3 (57544) - http://www.bohemiancoding.com/sketch -->
    <title>Group 10</title>
    <desc>Created with Sketch.</desc>
    <defs>
        <ellipse id="path-1" cx="19.7831426" cy="20.1574302" rx="19.5909449" ry="19.7385227"></ellipse>
        <ellipse id="path-3" cx="16.0358184" cy="16.9673051" rx="15.4118131" ry="16.4855431"></ellipse>
        <path d="M0.186595553,0.484963998 C0.186595553,0.484963998 3.33023551,1.01394422 4.84028379,1.01394422 C6.19085492,1.01394422 8.76845378,0.484963998 8.76845378,0.484963998 L8.76845378,2.15163057 C8.76845378,3.07210509 8.01570913,3.81829713 7.10766446,3.81829713 L5.52293578,3.81829713 C5.52293578,3.81829713 5.52293604,3.05270135 5.52293604,2.15163057 C5.52293604,1.89075806 3.74435812,1.82785021 3.74435812,2.15163057 C3.74435812,2.47541092 3.74435818,3.81829713 3.74435818,3.81829713 L1.86129856,3.81829713 C0.936385627,3.81829713 0.186595553,3.07852247 0.186595553,2.15163057 L0.186595553,0.484963998 Z" id="path-5"></path>
    </defs>
    <g id="Login" stroke="none" stroke-width="1" fill="none" fill-rule="evenodd">
        <g id="sign-up---tell-us" transform="translate(-77.000000, -63.000000)">
            <g id="Group-10" transform="translate(78.000000, 63.000000)">
                <g id="Group-8" transform="translate(0.355140, 0.000000)">
                    <g id="Group-6">
                        <g id="Rectangle-5" transform="translate(0.000000, 2.666667)">
                            <mask id="mask-2" fill="white">
                                <use xlink:href="#path-1"></use>
                            </mask>
                            <ellipse stroke="#3A3A3A" stroke-width="1.32479987" cx="19.7831426" cy="20.1574302" rx="20.2533449" ry="20.4009226"></ellipse>
                            <path d="M3.18831413,55.4315777 L36.9333888,55.4315777 L36.9333888,43.0961118 C36.9333888,36.2824145 31.4116698,30.7606459 24.5990992,30.7606459 L15.5226038,30.7606459 C8.70529145,30.7606459 3.18831413,36.2805784 3.18831413,43.0961118 L3.18831413,55.4315777 Z" stroke="#3A3A3A" stroke-width="0.662399933" fill="#FFFFFF" mask="url(#mask-2)"></path>
                            <path d="M14.8070876,29.183896 L14.8070876,39.4883153 L23.5015224,37.6698589 L26.0804343,28.3108263 L20.5902784,32.325716 L14.8070876,29.183896 Z" id="Rectangle-3-Copy-3" stroke="#000000" stroke-width="0.662399933" fill="#907057" mask="url(#mask-2)"></path>
                            <path d="M14.8070876,31.9155939 L14.8070876,42.4456629 L23.5015224,40.6272065 L26.1942556,30.8551092 L20.068999,31.915594 L14.8070876,31.9155939 Z" id="Rectangle-3-Copy-2" stroke="#000000" stroke-width="0.662399933" fill="#BDBEBC" mask="url(#mask-2)"></path>
                            <path d="M25.3626194,29.9033249 L22.781581,41.7269978 L28.782753,35.1938171 L26.8295051,33.4240572 L27.0460571,33.1789432 C27.0826889,33.1374798 27.1498776,33.0572325 27.2373349,32.9454931 C27.3840359,32.7580615 27.5308319,32.5533922 27.6673808,32.3391276 C27.891303,31.9877618 28.0643248,31.6467755 28.1665657,31.3344656 C28.2951307,30.941745 28.3017346,30.6248983 28.184137,30.3982812 C28.020255,30.0824716 27.53596,29.8919329 26.8148684,29.8424205 C26.4039827,29.8142079 25.9584602,29.8336046 25.52398,29.8833797 C25.464993,29.8901373 25.4109965,29.8968738 25.3626194,29.9033249 Z" id="Rectangle-3" stroke="#3A3A3A" stroke-width="0.662399933" fill="#FFFFFF" mask="url(#mask-2)"></path>
                            <path d="M14.114022,29.9033249 L11.5329835,41.7269978 L17.5341555,35.1938171 L15.5809077,33.4240572 L15.7974596,33.1789432 C15.8340914,33.1374798 15.9012801,33.0572325 15.9887374,32.9454931 C16.1354384,32.7580615 16.2822344,32.5533922 16.4187833,32.3391276 C16.6427055,31.9877618 16.8157273,31.6467755 16.9179683,31.3344656 C17.0465333,30.941745 17.0531372,30.6248983 16.9355395,30.3982812 C16.7716576,30.0824716 16.2873625,29.8919329 15.566271,29.8424205 C15.1553853,29.8142079 14.7098628,29.8336046 14.2753825,29.8833797 C14.2163955,29.8901373 14.1623991,29.8968738 14.114022,29.9033249 Z" id="Rectangle-3-Copy" stroke="#3A3A3A" stroke-width="0.662399933" fill="#FFFFFF" mask="url(#mask-2)" transform="translate(14.475888, 36.175847) scale(-1, 1) translate(-14.475888, -36.175847) "></path>
                        </g>
                        <g id="Group-4" transform="translate(0.000000, 0.589060)">
                            <g id="Group" transform="translate(32.422428, 17.999999)" stroke="#3A3A3A" stroke-width="0.662399933">
                                <rect id="Rectangle-4" fill="#DAAD8A" x="0.804399002" y="0.331199967" width="4.81954086" height="4.00426646" rx="1.9871998"></rect>
                                <path d="M3.63925212,2.33333319 L1.65420551,2.33333319" id="Line" stroke-linecap="round"></path>
                            </g>
                            <g id="Group-2-Copy" transform="translate(33.100933, 11.469194) scale(-1, 1) translate(-33.100933, -11.469194) translate(26.500933, 3.069195)" fill="#3A3A3A">
                                <g id="Group-3" transform="translate(0.023385, 0.324261)">
                                    <path d="M1.43638026,7.67278313 C1.1062772,7.31563445 0.904336817,6.83663127 0.904336817,6.3101071 C0.904336817,5.20553766 1.79307246,4.31010722 2.88938343,4.31010722 C3.10461251,4.31010722 3.31184121,4.34461891 3.50591547,4.40844939 C3.59073453,3.382628 4.44397432,2.57672684 5.48403511,2.57672684 C5.78236035,2.57672684 6.06531509,2.64303155 6.31917414,2.76181239 C6.39433383,1.46583276 7.46126062,0.438228807 8.7664027,0.438228807 C10.1203069,0.438228807 11.217863,1.54405283 11.217863,2.90815588 C11.217863,4.27225894 10.1203069,5.37808296 8.7664027,5.37808296 C8.27298798,5.37808296 7.81362021,5.23121252 7.42901642,4.97849539 C7.33758032,5.4302337 7.0950014,5.82657444 6.75681233,6.11156663 C7.13888153,6.47609288 7.37721302,6.99201011 7.37721302,7.56401197 C7.37721302,8.6685814 6.48847738,9.56401185 5.39216641,9.56401185 C5.39216641,10.2721829 5.02685525,10.8943883 4.47574136,11.2497673 C4.54599224,11.3752922 4.60317655,11.5092283 4.64543468,11.6497019 C5.46052394,11.8986102 6.05384861,12.6614997 6.05384861,13.5640116 C6.05384861,14.668581 5.16511297,15.5640115 4.068802,15.5640115 C3.17303787,15.5640115 2.41585215,14.9662173 2.16880491,14.144988 C1.35371565,13.8960798 0.760390982,13.1331902 0.760390982,12.2306784 C0.760390982,11.8742436 0.852934641,11.5395864 1.01513382,11.2497673 C0.464019936,10.8943883 0.0987087782,10.2721829 0.0987087782,9.56401185 C0.0987087782,8.68782222 0.657928867,7.94322935 1.43638026,7.67278313 Z" id="Combined-Shape"></path>
                                </g>
                            </g>
                            <g id="Group-Copy" transform="translate(4.278504, 20.399999) scale(-1, 1) translate(-4.278504, -20.399999) translate(1.278505, 17.999999)" stroke="#3A3A3A" stroke-width="0.662399933">
                                <rect id="Rectangle-4" fill="#DAAD8A" x="0.804399002" y="0.331199967" width="4.81954086" height="4.00426646" rx="1.9871998"></rect>
                                <path d="M3.63925212,2.33333319 L1.65420551,2.33333319" id="Line" stroke-linecap="round"></path>
                            </g>
                            <g id="Group-2" transform="translate(0.177260, 3.380246)" fill="#3A3A3A">
                                <g id="Group-3" transform="translate(0.023385, 0.324261)">
                                    <path d="M1.43638026,7.67278313 C1.1062772,7.31563445 0.904336817,6.83663127 0.904336817,6.3101071 C0.904336817,5.20553766 1.79307246,4.31010722 2.88938343,4.31010722 C3.10461251,4.31010722 3.31184121,4.34461891 3.50591547,4.40844939 C3.59073453,3.382628 4.44397432,2.57672684 5.48403511,2.57672684 C5.78236035,2.57672684 6.06531509,2.64303155 6.31917414,2.76181239 C6.39433383,1.46583276 7.46126062,0.438228807 8.7664027,0.438228807 C10.1203069,0.438228807 11.217863,1.54405283 11.217863,2.90815588 C11.217863,4.27225894 10.1203069,5.37808296 8.7664027,5.37808296 C8.27298798,5.37808296 7.81362021,5.23121252 7.42901642,4.97849539 C7.33758032,5.4302337 7.0950014,5.82657444 6.75681233,6.11156663 C7.13888153,6.47609288 7.37721302,6.99201011 7.37721302,7.56401197 C7.37721302,8.6685814 6.48847738,9.56401185 5.39216641,9.56401185 C5.39216641,10.2721829 5.02685525,10.8943883 4.47574136,11.2497673 C4.54599224,11.3752922 4.60317655,11.5092283 4.64543468,11.6497019 C5.46052394,11.8986102 6.05384861,12.6614997 6.05384861,13.5640116 C6.05384861,14.668581 5.16511297,15.5640115 4.068802,15.5640115 C3.17303787,15.5640115 2.41585215,14.9662173 2.16880491,14.144988 C1.35371565,13.8960798 0.760390982,13.1331902 0.760390982,12.2306784 C0.760390982,11.8742436 0.852934641,11.5395864 1.01513382,11.2497673 C0.464019936,10.8943883 0.0987087782,10.2721829 0.0987087782,9.56401185 C0.0987087782,8.68782222 0.657928867,7.94322935 1.43638026,7.67278313 Z" id="Combined-Shape"></path>
                                </g>
                            </g>
                            <g id="Oval-4-Copy" transform="translate(3.970093, 0.000000)">
                                <mask id="mask-4" fill="white">
                                    <use xlink:href="#path-3"></use>
                                </mask>
                                <ellipse stroke="#3A3A3A" stroke-width="0.662399933" cx="16.0358184" cy="16.9673051" rx="15.7430131" ry="16.8167431"></ellipse>
                                <ellipse fill="#EBC9B0" mask="url(#mask-4)" cx="16.4429727" cy="15.2188098" rx="15.4118131" ry="16.4855431"></ellipse>
                            </g>
                            <ellipse id="Oval-2" stroke="#3A3A3A" stroke-width="0.662399933" fill="#FFFFFF" cx="11.8739882" cy="16.9109993" rx="5.95513983" ry="5.99999964"></ellipse>
                            <ellipse id="Oval-2-Copy" stroke="#3A3A3A" stroke-width="0.662399933" fill="#FFFFFF" cx="27.7543611" cy="16.9109993" rx="5.95513983" ry="5.99999964"></ellipse>
                            <ellipse id="Oval-3" fill="#3A3A3A" cx="27.5799138" cy="17.0681609" rx="1" ry="1"></ellipse>
                            <ellipse id="Oval-3-Copy" fill="#3A3A3A" cx="12.3612231" cy="17.0681609" rx="1" ry="1"></ellipse>
                            <path d="M18.1962606,16.999999 L21.5046716,16.999999" id="Line" stroke="#3A3A3A" stroke-width="0.662399933" stroke-linecap="square"></path>
                            <path d="M14.403112,29.5437529 C14.403112,28.4130338 14.1062617,24.926597 14.1062617,24.926597 C13.9897653,23.4652783 15.0537214,22.538142 16.4829404,22.8394351 C16.4829404,22.8394351 18.6781849,23.3789202 19.8690259,23.3789202 C20.8860934,23.3789202 23.2187163,22.8297828 23.2187163,22.8297828 C24.6474161,22.5265026 25.7269702,23.457108 25.6319384,24.9244031 C25.6319384,24.9244031 25.3875351,28.4063501 25.3875351,29.5437529 C25.3875351,30.5857352 25.5599942,32.1314815 25.5599942,32.1314815 C25.6956418,33.5904379 24.6200596,34.7731557 23.1623289,34.7731557 L16.5386034,34.7731557 C15.0787617,34.7731557 14.034081,33.5881553 14.1936444,32.1342431 C14.1936444,32.1342431 14.403112,30.5924188 14.403112,29.5437529 Z" id="Rectangle-2" fill="#3A3A3A"></path>
                            <g id="Rectangle-6" transform="translate(15.218691, 23.999999)">
                                <mask id="mask-6" fill="white">
                                    <use xlink:href="#path-5"></use>
                                </mask>
                                <use id="Mask" fill="#EBC9B0" xlink:href="#path-5"></use>
                            </g>
                        </g>
                        <path d="M13.5644852,8.33333284 C13.5644852,8.33333284 16.2981118,7.51989741 20.1813072,7.51989741 C24.0645026,7.51989741 26.7981292,8.33333284 26.7981292,8.33333284" id="Line" stroke="#DAAD8A" stroke-width="0.599999964" stroke-linecap="round"></path>
                        <path d="M13.5644852,6.99999958 C13.5644852,6.99999958 16.2981118,6.18656415 20.1813072,6.18656415 C24.0645026,6.18656415 26.7981292,6.99999958 26.7981292,6.99999958" id="Line-Copy" stroke="#DAAD8A" stroke-width="0.599999964" stroke-linecap="round"></path>
                        <path d="M13.5644852,5.66666633 C13.5644852,5.66666633 16.2981118,4.8532309 20.1813072,4.8532309 C24.0645026,4.8532309 26.7981292,5.66666633 26.7981292,5.66666633" id="Line-Copy-2" stroke="#DAAD8A" stroke-width="0.599999964" stroke-linecap="round"></path>
                    </g>
                    <g id="Group-7" transform="translate(45.126726, 6.966666)" fill="#4C4C4C">
                        <g id="Group-5" transform="translate(0.016236, 0.379200)">
                            <g id="Group-9" transform="translate(0.000000, -0.000000)">
                                <text id="SEO" font-family="Avenir-Medium, Avenir" font-size="11.1283189" font-weight="400">
                                    <tspan x="1.32339449" y="11.336">SEO</tspan>
                                </text>
                                <text id="DOCTOR" font-family="Avenir-Heavy, Avenir" font-size="19.0771181" font-weight="600" line-spacing="30.046461" letter-spacing="0.496799964">
                                    <tspan x="0.265229374" y="26.2301347">DOCTO</tspan>
                                    <tspan x="73.0293322" y="26.2301347">R</tspan>
                                </text>
                            </g>
                        </g>
                    </g>
                </g>
                <text id="by-Kudobuzz" font-family="SFProText-Medium, SF Pro Text" font-size="7.99999952" font-weight="400" letter-spacing="0.0888888723" fill="#34495E">
                    <tspan x="87.1999948" y="48.7999976">by Kudobuzz</tspan>
                </text>
            </g>
        </g>
    </g>
</svg>