<?xml version="1.0" encoding="UTF-8"?>
<svg width="30px" height="31px" viewBox="0 0 30 31" version="1.1" xmlns="http://www.w3.org/2000/svg" xmlns:xlink="http://www.w3.org/1999/xlink">
    <!-- Generator: Sketch 55.1 (78136) - https://sketchapp.com -->
    <title>Combined Shape</title>
    <desc>Created with Sketch.</desc>
    <g id="Settings" stroke="none" stroke-width="1" fill="none" fill-rule="evenodd">
        <path d="M0.344477273,7.83995299 C-0.114704545,7.62533761 -0.114704545,6.99023504 0.344477273,6.77561966 L14.70875,0.0584230769 C14.8753864,-0.019474359 15.0695682,-0.019474359 15.2361136,0.0584230769 L29.6006591,6.77553134 C30.0598409,6.99014672 30.0598409,7.62533761 29.6006591,7.83986467 L15.2362955,14.5572379 C15.0696591,14.6351353 14.8754773,14.6351353 14.7088409,14.5572379 L0.344477273,7.83995299 Z M0.344477273,15.9878305 C-0.114704545,15.7733034 -0.114704545,15.1382009 0.344386364,14.9233205 L3.37520455,13.5060641 L12.9996591,18.0068932 C13.6122045,18.2931353 14.2940227,18.444161 14.9725682,18.444161 C15.6511136,18.444161 16.3331136,18.2931353 16.9445682,18.0073348 L26.5701136,13.5064174 L29.6006591,14.9234088 C30.0598409,15.1382009 30.0598409,15.7733917 29.6006591,15.9879188 L15.2362955,22.7052037 C15.0696591,22.7831011 14.8754773,22.7831011 14.7088409,22.7052037 L0.344477273,15.9878305 Z M29.6006591,23.071463 C30.0598409,23.2861667 30.0598409,23.9211809 29.6005682,24.1360613 L15.2362045,30.8533462 C15.0695682,30.9312436 14.8753864,30.9312436 14.70875,30.8533462 L0.344386364,24.1360613 C-0.114795455,23.9212692 -0.114795455,23.2863433 0.344386364,23.0715513 L3.37520455,21.6542066 L12.9996591,26.1549473 C13.6122045,26.4411895 14.2940227,26.5922151 14.9725682,26.5922151 C15.6511136,26.5922151 16.3331136,26.4411895 16.9445682,26.1553889 L26.5701136,21.6542066 L29.6006591,23.071463 Z" id="Combined-Shape" fill="#C4CDD5" fill-rule="nonzero"></path>
    </g>
</svg>