<?xml version="1.0" encoding="UTF-8"?>
<svg width="28px" height="28px" viewBox="0 0 28 28" version="1.1" xmlns="http://www.w3.org/2000/svg" xmlns:xlink="http://www.w3.org/1999/xlink">
    <!-- Generator: Sketch 55.1 (78136) - https://sketchapp.com -->
    <title>Combined Shape</title>
    <desc>Created with Sketch.</desc>
    <g id="Settings" stroke="none" stroke-width="1" fill="none" fill-rule="evenodd">
        <path d="M6.12685937,11.295375 C5.83608594,12.1430859 5.67760156,13.0530859 5.67760156,14 C5.67771094,15.0276875 5.86386719,16.0123359 6.20539062,16.92075 C7.38767969,20.0761641 10.4315312,22.3223437 14,22.3223437 C15.5338203,22.3223437 16.9707891,21.9077031 18.2038281,21.1838594 C19.8408437,20.223875 21.1200937,18.7215547 21.7939531,16.9231016 L14.3077812,16.9231016 L14.3077812,11.384625 L21.9031641,11.384625 L27.7553828,11.384625 C27.9161641,12.2315156 28,13.1061328 28,14 C28,15.0023125 27.8946172,15.9800156 27.6938594,16.9231016 C27.0123437,20.1323281 25.2315547,22.934625 22.7646562,24.9177031 C20.3654062,26.8461484 17.3176719,28 14,28 C8.66846094,28 4.03309375,25.0200234 1.66846094,20.6346328 C0.603859375,18.6599766 -1.64313008e-13,16.4007813 -1.64313008e-13,14 C-1.64313008e-13,11.6784609 0.56459375,9.48921094 1.565375,7.56153125 C3.89539062,3.06922656 8.58921875,8.8817842e-16 14,8.8817842e-16 C17.3969141,8.8817842e-16 20.5115312,1.21001563 22.9361562,3.2230625 L18.4007578,6.936125 C17.124625,6.13845313 15.616125,5.67765625 14,5.67765625 C10.3507578,5.67765625 7.24997656,8.02686719 6.12691406,11.295375 Z" id="Combined-Shape" fill="#C4CDD5" fill-rule="nonzero"></path>
    </g>
</svg>