<?xml version="1.0" encoding="UTF-8"?>
<svg width="14px" height="16px" viewBox="0 0 14 16" version="1.1" xmlns="http://www.w3.org/2000/svg" xmlns:xlink="http://www.w3.org/1999/xlink">
    <!-- Generator: Sketch 55.1 (78136) - https://sketchapp.com -->
    <title>Combined Shape Copy</title>
    <desc>Created with Sketch.</desc>
    <g id="Manual-Tools" stroke="none" stroke-width="1" fill="none" fill-rule="evenodd">
        <g id="seo-doctor-manual-tools" transform="translate(-676.000000, -765.000000)" fill="#43486F">
            <g id="Group-3" transform="translate(393.000000, 571.000000)">
                <g id="Group">
                    <g id="Buttons-/-Desktop-/-08-Large-/-02-Primary" transform="translate(265.000000, 115.000000)">
                        <path d="M28.4188088,85.2332933 L31.2730147,85.2332933 C31.6618232,85.2332933 31.9770147,85.5484848 31.9770147,85.9372932 C31.9770147,86.1404406 31.8892599,86.3336854 31.7362995,86.4673716 L22.1721197,94.8263977 C21.8793655,95.0822628 21.4346216,95.0523583 21.1787565,94.7596041 C21.0264056,94.5852881 20.9694954,94.3472103 21.0265442,94.1228394 L22.4063176,88.696234 L18.7106605,88.696234 C18.3218521,88.696234 18.0066606,88.3810425 18.0066606,87.9922341 C18.0066606,87.8986694 18.0253115,87.8060433 18.0615231,87.7197702 L21.3592326,79.8630721 C21.5787031,79.3401899 22.0904332,79 22.6575074,79 L29.9761323,79 C30.3649407,79 30.6801322,79.3151915 30.6801322,79.7039999 C30.6801322,79.7975646 30.6614813,79.8901906 30.6252696,79.9764638 L28.4188088,85.2332933 Z" id="Combined-Shape-Copy"></path>
                    </g>
                </g>
            </g>
        </g>
    </g>
</svg>