<?xml version="1.0" encoding="UTF-8"?>
<svg width="14px" height="14px" viewBox="0 0 14 14" version="1.1" xmlns="http://www.w3.org/2000/svg" xmlns:xlink="http://www.w3.org/1999/xlink">
    <!-- Generator: Sketch 55.1 (78136) - https://sketchapp.com -->
    <title>Combined Shape</title>
    <desc>Created with Sketch.</desc>
    <g id="Manual-Tools" stroke="none" stroke-width="1" fill="none" fill-rule="evenodd">
        <path d="M0.875,-1.77635684e-14 L13.125,-1.77635684e-14 C13.608,-1.77635684e-14 14,0.391125 14,0.875 L14,13.125 C14,13.608875 13.608,14 13.125,14 L10.5,14 L0.968994141,14 C0.437803902,14 5.13848558e-14,13.563126 5.66340449e-14,13.0242146 L1.74971729e-13,0.875 C1.74971729e-13,0.391125 0.392,-1.77635684e-14 0.875,-1.77635684e-14 Z M1.75,12.25 L12.25,12.25 L12.25,8.23725 L10.5,6.48725 L6.743625,10.243625 C6.449625,10.5385 5.987625,10.58575 5.639375,10.353 L3.5,8.92675 L1.75,10.093125 L1.75,12.25 Z M2.48854563,1.59893526 C2.05743485,1.59893526 1.70795052,1.94841959 1.70795052,2.37953037 L1.70795052,6.9721863 C1.70795052,7.40329708 2.05743485,7.75278141 2.48854563,7.75278141 L7.08120156,7.75278141 C7.51231234,7.75278141 7.86179667,7.40329708 7.86179667,6.9721863 L7.86179667,2.37953037 C7.86179667,1.94841959 7.51231234,1.59893526 7.08120156,1.59893526 L2.48854563,1.59893526 Z M5.3468804,6.52201218 L4.2197873,6.52201218 L4.2197873,3.58454217 L2.93871975,3.58454217 L2.93871975,2.82970449 L6.63102744,2.82970449 L6.63102744,3.58454217 L5.3468804,3.58454217 L5.3468804,6.52201218 Z" id="Combined-Shape" fill="#43486F"></path>
    </g>
</svg>