<?xml version="1.0" encoding="UTF-8"?>
<svg width="23px" height="20px" viewBox="0 0 23 20" version="1.1" xmlns="http://www.w3.org/2000/svg" xmlns:xlink="http://www.w3.org/1999/xlink">
    <!-- Generator: Sketch 55.1 (78136) - https://sketchapp.com -->
    <title>Combined Shape</title>
    <desc>Created with Sketch.</desc>
    <g id="Dashboard" stroke="none" stroke-width="1" fill="none" fill-rule="evenodd">
        <path d="M10.9461833,8.86316302 L10.9461833,6.67631387 L9.1245661,6.67631387 C8.57228135,6.67631387 8.1245661,6.22859862 8.1245661,5.67631387 L8.1245661,1 C8.1245661,0.44771525 8.57228135,1.01453063e-16 9.1245661,0 L15.2491322,0 C15.801417,-1.01453063e-16 16.2491322,0.44771525 16.2491322,1 L16.2491322,5.67631387 C16.2491322,6.22859862 15.801417,6.67631387 15.2491322,6.67631387 L13.1619741,6.67631387 L13.1619741,8.86316302 L18.8342214,8.86316302 C19.4460951,8.86316302 19.9421168,9.35918468 19.9421168,9.9710584 L19.9421168,13.3236861 L21.8965045,13.3236861 C22.4487892,13.3236861 22.8965045,13.7714014 22.8965045,14.3236861 L22.8965045,19 C22.8965045,19.5522847 22.4487892,20 21.8965045,20 L15.7719384,20 C15.2196536,20 14.7719384,19.5522847 14.7719384,19 L14.7719384,14.3236861 C14.7719384,13.7714014 15.2196536,13.3236861 15.7719384,13.3236861 L17.726326,13.3236861 L17.726326,11.0789538 L5.53131662,11.0789538 L5.53131662,13.3236861 L7.1245661,13.3236861 C7.67685085,13.3236861 8.1245661,13.7714014 8.1245661,14.3236861 L8.1245661,19 C8.1245661,19.5522847 7.67685085,20 7.1245661,20 L1,20 C0.44771525,20 3.05125913e-18,19.5522847 0,19 L0,14.3236861 C-6.76353751e-17,13.7714014 0.44771525,13.3236861 1,13.3236861 L3.31552587,13.3236861 L3.31552587,9.9710584 C3.31552587,9.35918468 3.81154752,8.86316302 4.42342125,8.86316302 L10.9461833,8.86316302 Z" id="Combined-Shape" fill="#FFFFFF" fill-rule="nonzero"></path>
    </g>
</svg>