<?xml version="1.0" encoding="UTF-8"?>
<svg width="11px" height="14px" viewBox="0 0 11 14" version="1.1" xmlns="http://www.w3.org/2000/svg" xmlns:xlink="http://www.w3.org/1999/xlink">
    <!-- Generator: Sketch 55.1 (78136) - https://sketchapp.com -->
    <title>Combined Shape</title>
    <desc>Created with Sketch.</desc>
    <g id="Manual-Tools" stroke="none" stroke-width="1" fill="none" fill-rule="evenodd">
        <path d="M3.70276498,1.78798184 C3.70276498,0.800506738 4.5074145,0 5.5,0 C6.4925855,0 7.29723502,0.800506738 7.29723502,1.78798184 L10.6112,1.78798184 C10.8259283,1.78798184 11,1.96205352 11,2.17678181 L11,13.6112 C11,13.8259283 10.8259283,14 10.6112,14 L0.388799962,14 C0.174071672,14 2.62966313e-17,13.8259283 0,13.6112 L0,2.17678181 C-2.62966313e-17,1.96205352 0.174071672,1.78798184 0.388799962,1.78798184 L3.70276498,1.78798184 Z M4.90897034,8.45602811 L4.3261946,7.65540357 C4.07523109,7.31062679 3.59266602,7.23485152 3.24835535,7.48615476 C2.90404468,7.73745801 2.82837185,8.22067634 3.07933535,8.56545312 L4.20971592,10.118384 C4.49426384,10.5092994 5.06351957,10.5451476 5.394734,10.1930091 L8.3160448,7.08714738 C8.60816689,6.77657077 8.59354692,6.28766636 8.28339017,5.99514881 C7.97323343,5.70263126 7.48498997,5.71727103 7.19286788,6.02784764 L4.90897034,8.45602811 Z" id="Combined-Shape" fill="#43486F"></path>
    </g>
</svg>