<?xml version="1.0" encoding="UTF-8"?>
<svg width="14px" height="15px" viewBox="0 0 14 15" version="1.1" xmlns="http://www.w3.org/2000/svg" xmlns:xlink="http://www.w3.org/1999/xlink">
    <!-- Generator: Sketch 55.1 (78136) - https://sketchapp.com -->
    <title>Combined Shape</title>
    <desc>Created with Sketch.</desc>
    <g id="Manual-Tools" stroke="none" stroke-width="1" fill="none" fill-rule="evenodd">
        <path d="M4.83021438,5.24666553 L3.09168249,3.8507648 C2.96010304,3.90160206 2.81641011,3.92957746 2.6659218,3.92957746 C2.03491553,3.92957746 1.52338389,3.43772127 1.52338389,2.83098592 C1.52338389,2.22425056 2.03491553,1.73239437 2.6659218,1.73239437 C3.29692807,1.73239437 3.80845971,2.22425056 3.80845971,2.83098592 C3.80845971,2.88359464 3.80461389,2.93533967 3.79717782,2.98597526 L5.56284321,4.40366199 C5.97615075,4.1059342 6.48948159,3.92957746 7.04565047,3.92957746 C7.66166738,3.92957746 8.22513081,4.14593099 8.65833703,4.50392307 L10.6428804,3.11716935 C10.5970114,2.96843967 10.5723863,2.81092863 10.5723863,2.64788732 C10.5723863,1.73778429 11.3396837,1 12.2861931,1 C13.2327025,1 14,1.73778429 14,2.64788732 C14,3.55799036 13.2327025,4.29577465 12.2861931,4.29577465 C11.9255332,4.29577465 11.5908935,4.18865345 11.3148099,4.00569526 L9.3305171,5.39227386 C9.45331809,5.6746577 9.52114928,5.9846417 9.52114928,6.30985915 C9.52114928,6.7680984 9.38648068,7.19609394 9.15312204,7.55925105 L10.5148232,8.86841874 C10.6642562,8.81007037 10.8276659,8.77793 10.9988827,8.77793 C11.7098446,8.77793 12.2861931,9.33210995 12.2861931,10.0157256 C12.2861931,10.6993412 11.7098446,11.2535211 10.9988827,11.2535211 C10.2879208,11.2535211 9.71157227,10.6993412 9.71157227,10.0157256 C9.71157227,9.90385168 9.7270077,9.79544427 9.75594252,9.69236489 L8.34527406,8.33611904 C8.12334482,8.46800292 7.87812615,8.56711925 7.61691943,8.6264475 L7.61691943,10.7979933 C8.28255766,11.0242133 8.75945734,11.6346122 8.75945734,12.3521127 C8.75945734,13.2622157 7.99215987,14 7.04565047,14 C6.09914107,14 5.3318436,13.2622157 5.3318436,12.3521127 C5.3318436,11.6346122 5.80874328,11.0242133 6.47438151,10.7979933 L6.47438151,8.6264475 C6.18261863,8.56017899 5.91080318,8.44426904 5.66911034,8.28850144 L2.59772337,11.0308047 C2.64196252,11.1583371 2.6659218,11.294788 2.6659218,11.4366197 C2.6659218,12.1444776 2.06913488,12.7183099 1.3329609,12.7183099 C0.596786923,12.7183099 0,12.1444776 0,11.4366197 C0,10.7287618 0.596786923,10.1549296 1.3329609,10.1549296 C1.49970493,10.1549296 1.65929804,10.1843687 1.80642519,10.2381363 L4.89153938,7.48357657 C4.68697016,7.13720554 4.57015166,6.73664983 4.57015166,6.30985915 C4.57015166,5.92774502 4.66379308,5.56666077 4.83021438,5.24666553 Z" id="Combined-Shape" fill="#43486F" transform="translate(7.000000, 7.500000) scale(-1, -1) rotate(90.000000) translate(-7.000000, -7.500000) "></path>
    </g>
</svg>