<?xml version="1.0" encoding="UTF-8"?>
<svg width="16px" height="16px" viewBox="0 0 16 16" version="1.1" xmlns="http://www.w3.org/2000/svg" xmlns:xlink="http://www.w3.org/1999/xlink">
    <!-- Generator: Sketch 55.1 (78136) - https://sketchapp.com -->
    <title>Combined Shape</title>
    <desc>Created with Sketch.</desc>
    <g id="Dashboard" stroke="none" stroke-width="1" fill="none" fill-rule="evenodd">
        <path d="M7.75,0 C12.0302068,0 15.5,3.46979319 15.5,7.75 C15.5,12.0302068 12.0302068,15.5 7.75,15.5 C3.46979319,15.5 0,12.0302068 0,7.75 C0,3.46979319 3.46979319,0 7.75,0 Z M7.75,0.5 C3.74593556,0.5 0.5,3.74593556 0.5,7.75 C0.5,11.7540644 3.74593556,15 7.75,15 C11.7540644,15 15,11.7540644 15,7.75 C15,3.74593556 11.7540644,0.5 7.75,0.5 Z M6.78375086,9.26660316 L6.78375086,8.90527504 C6.78375086,8.59277347 6.85048197,8.3209663 6.98394618,8.08984535 C7.11741038,7.8587244 7.36154857,7.61295863 7.71636805,7.35254066 C8.05816663,7.10839882 8.28358756,6.90983309 8.39263758,6.75683754 C8.50168761,6.60384198 8.5562118,6.43294525 8.5562118,6.24414222 C8.5562118,6.03255262 8.47808758,5.87142142 8.3218368,5.76074379 C8.16558602,5.65006615 7.94748924,5.59472816 7.66753993,5.59472816 C7.17925623,5.59472816 6.62262118,5.75423177 5.99761805,6.07324379 L5.46539149,5.00390785 C6.19130658,4.59700477 6.96115565,4.39355629 7.7749618,4.39355629 C8.44553807,4.39355629 8.9785731,4.55468749 9.37408289,4.87695472 C9.76959268,5.19922196 9.96734461,5.62890516 9.96734461,6.16601722 C9.96734461,6.52409193 9.88596522,6.83333363 9.72320399,7.0937516 C9.56044276,7.35416957 9.25120106,7.64713539 8.79546961,7.97265785 C8.48296805,8.2037788 8.28521612,8.37955829 8.20220789,8.5000016 C8.11919967,8.62044491 8.07769618,8.77832093 8.07769618,8.97363441 L8.07769618,9.26660316 L6.78375086,9.26660316 Z M6.62750086,10.936525 C6.62750086,10.6630862 6.70074232,10.4563825 6.84722743,10.3164078 C6.99371253,10.1764332 7.20692655,10.1064469 7.48687586,10.1064469 C7.75705951,10.1064469 7.96620455,10.1780608 8.11431727,10.3212907 C8.26242999,10.4645205 8.33648524,10.6695966 8.33648524,10.936525 C8.33648524,11.1936878 8.26161619,11.3963225 8.11187586,11.5444352 C7.96213553,11.6925479 7.75380428,11.7666032 7.48687586,11.7666032 C7.213437,11.7666032 7.00185057,11.6941755 6.85211024,11.549318 C6.70236991,11.4044605 6.62750086,11.2001982 6.62750086,10.936525 Z" id="Combined-Shape" fill="#47C1BF" fill-rule="nonzero"></path>
    </g>
</svg>