<?xml version="1.0" encoding="UTF-8"?>
<svg width="23px" height="23px" viewBox="0 0 23 23" version="1.1" xmlns="http://www.w3.org/2000/svg" xmlns:xlink="http://www.w3.org/1999/xlink">
    <!-- Generator: Sketch 55.1 (78136) - https://sketchapp.com -->
    <title>Combined Shape</title>
    <desc>Created with Sketch.</desc>
    <g id="Dashboard" stroke="none" stroke-width="1" fill="none" fill-rule="evenodd">
        <path d="M21.9543156,3.07920198 C21.7966927,2.61344034 21.3583397,2.29948249 20.8647612,2.29948249 C20.8198904,2.29948249 16.2798882,2.27418185 12.018315,0.122478062 C11.6927142,-0.0408260207 11.3072858,-0.0408260207 10.981685,0.122478062 C6.74082136,2.2638316 2.17895909,2.29948249 2.13408831,2.29948249 C1.64166031,2.30063252 1.20330734,2.61344034 1.04568435,3.07920198 C-0.52709389,7.71496787 -0.322299064,12.078177 1.63705817,15.6961674 C3.53198558,19.1934048 7.1112929,21.9097727 11.2140926,22.9631991 C11.3084363,22.9873497 11.4039305,23 11.5005753,23 C11.5960695,23 11.6927142,22.9873497 11.7859074,22.9631991 C15.8887071,21.9097727 19.4680144,19.1934048 21.3629418,15.6961674 C23.3222991,12.078177 23.5270939,7.71496787 21.9543156,3.07920198 M19.3391548,14.60134 C17.7882366,17.4649116 14.8727867,19.7120678 11.5005753,20.6596915 C8.1272133,19.7120678 5.21176337,17.4649116 3.66084525,14.60134 C2.11567979,11.7504188 1.88787431,8.29343234 2.9877836,4.56503913 C4.55250811,4.4638366 8.02826749,4.05442636 11.5005753,2.42828571 C14.9717325,4.05442636 18.4474919,4.4638366 20.0122164,4.56503913 C21.1132762,8.29343234 20.8843202,11.7504188 19.3391548,14.60134 M7.92361227,6.11697842 L11.3939164,8.04501104 L9.12319423,10.3157899 L6.42371063,7.61691755 L7.92361227,6.11697842 Z M14.3937196,11.0442106 L16.3217041,14.5152802 L14.8218024,16.0152193 L12.1229975,13.3156682 L14.3937196,11.0442106 Z M15.4439506,9.39481211 L14.5438399,8.49467895 L13.9062121,9.13232276 C14.130858,9.60555017 14.0521301,10.1861827 13.6617145,10.5772868 L10.3624399,13.8773225 C10.0634776,14.1761226 9.72413338,14.4068825 9.36290141,14.578595 L10.0621203,15.9763889 L9.46232928,16.5761949 L5.86273502,12.9771894 L6.462526,12.3773834 L7.86028502,13.075941 C8.0326719,12.7147 8.26393502,12.3753473 8.56289731,12.0763775 L11.8609842,8.77702044 C12.2525875,8.3859164 12.8325268,8.30786527 13.3057424,8.53251678 L13.9433703,7.89487297 L13.0432596,6.99541852 L13.6437293,6.39561254 L16.0430629,8.79500613 L15.4439506,9.39481211 Z" id="Combined-Shape" fill="#FFFFFF"></path>
    </g>
</svg>