<?xml version="1.0" encoding="UTF-8"?>
<svg width="21px" height="22px" viewBox="0 0 21 22" version="1.1" xmlns="http://www.w3.org/2000/svg" xmlns:xlink="http://www.w3.org/1999/xlink">
    <!-- Generator: Sketch 55.1 (78136) - https://sketchapp.com -->
    <title>Shape</title>
    <desc>Created with Sketch.</desc>
    <g id="Symbols" stroke="none" stroke-width="1" fill="none" fill-rule="evenodd">
        <g id="menu/icon-keyword-setup" transform="translate(0.000000, 1.000000)" fill="#43486F" fill-rule="nonzero">
            <g id="Group-9" transform="translate(0.000000, -1.000000)">
                <g id="Group-12" transform="translate(0.000000, 0.700461)">
                    <path d="M11.1281984,19.2581638 L11.1281984,19.4839438 C11.1281984,20.0362286 10.6804832,20.4839438 10.1281984,20.4839438 C9.57591367,20.4839438 9.12819842,20.0362286 9.12819842,19.4839438 L9.12819842,19.2581638 C4.91073391,18.7919468 1.57157243,15.4115574 1.16895833,11.1752402 L0.971570486,11.1696263 C0.41950897,11.1539251 -0.0152969868,10.6936625 0.000404200328,10.1416009 C0.0161053875,9.58953943 0.476367998,9.15473348 1.02842951,9.17043466 L1.19943363,9.17529819 C1.71748838,5.06871552 5.00261883,1.82408107 9.12819842,1.36802138 L9.12819842,0.99999978 C9.12819842,0.44771503 9.57591367,-2.20345708e-07 10.1281984,-2.20345708e-07 C10.6804832,-2.20345708e-07 11.1281984,0.44771503 11.1281984,0.99999978 L11.1281984,1.36802138 C15.2747394,1.82639824 18.5722692,5.10175845 19.0646451,9.23795937 L19.3187916,9.24518755 C19.8708532,9.26088874 20.3056591,9.72115135 20.2899579,10.2732129 C20.2742567,10.8252744 19.8139941,11.2600803 19.2619326,11.2443791 L19.0811265,11.2392368 C18.6511386,15.4455625 15.3244039,18.7942968 11.1281984,19.2581638 L11.1281984,19.2581638 Z M9.12819842,17.2422037 L9.12819842,16.3647781 C9.12819842,15.8124934 9.57591367,15.3647781 10.1281984,15.3647781 C10.6804832,15.3647781 11.1281984,15.8124934 11.1281984,16.3647781 L11.1281984,17.2422037 C14.2374012,16.7974671 16.6875016,14.3095497 17.0747768,11.1821742 L16.6335841,11.1696263 C16.0815226,11.1539251 15.6467166,10.6936625 15.6624178,10.1416009 C15.678119,9.58953943 16.1383816,9.15473348 16.6904431,9.17043466 L17.0370095,9.18029136 C16.5484186,6.1775744 14.1494867,3.8161429 11.1281984,3.38398146 L11.1281984,4.11916548 C11.1281984,4.67145023 10.6804832,5.11916548 10.1281984,5.11916548 C9.57591367,5.11916548 9.12819842,4.67145023 9.12819842,4.11916548 L9.12819842,3.38398146 C6.0894172,3.81864506 3.68021998,6.20498393 3.21109301,9.23251182 L3.65677803,9.24518755 C4.20883954,9.26088874 4.6436455,9.72115135 4.62794431,10.2732129 C4.61224312,10.8252744 4.15198051,11.2600803 3.599919,11.2443791 L3.18805885,11.2326654 C3.59531466,14.3362982 6.03574673,16.7998632 9.12819842,17.2422037 Z M14.2657143,7.45840767 L12.8594643,12.892978 L10.9991127,12.892978 L10.1495034,9.31387642 L10.0567299,9.31387642 L9.21688617,12.892978 L7.38583148,12.892978 L5.96981586,7.45840767 L7.71786273,7.45840767 L8.39657367,11.1839936 L8.48934711,11.1839936 L9.30965961,7.45840767 L10.9551674,7.45840767 L11.7852455,11.1839936 L11.878019,11.1839936 L12.5567299,7.45840767 L14.2657143,7.45840767 Z" id="Shape"></path>
                </g>
            </g>
        </g>
    </g>
</svg>