<?xml version="1.0" encoding="UTF-8"?>
<svg width="21px" height="21px" viewBox="0 0 21 21" version="1.1" xmlns="http://www.w3.org/2000/svg" xmlns:xlink="http://www.w3.org/1999/xlink">
    <!-- Generator: Sketch 55.1 (78136) - https://sketchapp.com -->
    <title>Icon</title>
    <desc>Created with Sketch.</desc>
    <g id="Dashboard" stroke="none" stroke-width="1" fill="none" fill-rule="evenodd">
        <path d="M10.5,14.4375 C8.3252008,14.4375 6.56252407,12.6748125 6.56252407,10.5 C6.56252407,8.3251875 8.3252008,6.5625 10.5,6.5625 C12.6747992,6.5625 14.4374759,8.3251875 14.4374759,10.5 C14.4374759,12.6748125 12.6747992,14.4375 10.5,14.4375 M20.31219,12.802125 C18.4825762,11.8125 18.4825762,9.1875 20.31219,8.197875 C20.6298131,8.0259375 20.8621241,7.730625 20.9553111,7.3828125 C21.048498,7.0336875 20.9946858,6.66225 20.805687,6.355125 L19.4052581,4.0805625 C19.0403853,3.488625 18.276515,3.283875 17.6635812,3.614625 L17.0768973,3.9335625 C15.3325955,4.87725 13.2116084,3.6133125 13.2116084,1.630125 L13.2116084,1.3125 C13.2116084,0.588 12.6249245,0 11.8991164,0 L9.10088355,0 C8.37507549,0 7.78839158,0.588 7.78839158,1.3125 L7.78839158,1.630125 C7.78839158,3.6133125 5.66740455,4.87725 3.92310271,3.9335625 L3.3364188,3.614625 C2.72348505,3.283875 1.95961472,3.488625 1.59474195,4.0805625 L0.194313011,6.355125 C0.00531416609,6.66225 -0.0484980049,7.0336875 0.0446889253,7.3828125 C0.137875856,7.730625 0.370186935,8.0259375 0.687809993,8.197875 C2.51742381,9.1875 2.51742381,11.8125 0.687809993,12.802125 C0.370186935,12.9740625 0.137875856,13.269375 0.0446889253,13.6171875 C-0.0484980049,13.9663125 0.00531416609,14.33775 0.194313011,14.644875 L1.59474195,16.9194375 C1.95961472,17.511375 2.72348505,17.716125 3.3364188,17.385375 L3.92310271,17.0664375 C5.66740455,16.12275 7.78839158,17.3866875 7.78839158,19.369875 L7.78839158,19.6875 C7.78839158,20.412 8.37507549,21 9.10088355,21 L11.8991164,21 C12.6249245,21 13.2116084,20.412 13.2116084,19.6875 L13.2116084,19.369875 C13.2116084,17.3866875 15.3325955,16.12275 17.0768973,17.0664375 L17.6635812,17.385375 C18.276515,17.716125 19.0403853,17.511375 19.4052581,16.9194375 L20.805687,14.644875 C20.9946858,14.33775 21.048498,13.9663125 20.9553111,13.6171875 C20.8621241,13.269375 20.6298131,12.9740625 20.31219,12.802125" id="Icon" fill="#FFFFFF"></path>
    </g>
</svg>