<?xml version="1.0" encoding="UTF-8"?>
<svg width="15px" height="15px" viewBox="0 0 15 15" version="1.1" xmlns="http://www.w3.org/2000/svg" xmlns:xlink="http://www.w3.org/1999/xlink">
    <!-- Generator: Sketch 55.1 (78136) - https://sketchapp.com -->
    <title>Combined Shape</title>
    <desc>Created with Sketch.</desc>
    <g id="Manual-Tools" stroke="none" stroke-width="1" fill="none" fill-rule="evenodd">
        <path d="M4.18754957,9.64812347 L4.18754957,10.8468618 L10.6957399,10.8468618 L10.6957399,8.40499244 L9.50231041,7.476752 L7.18013456,9.79737343 L5.33804509,8.8334124 L4.18754957,9.64812347 Z M11.9553896,7.79253573 L11.9722643,7.80566072 L11.9553896,7.82719893 L11.9553896,12.1019345 L2.92789983,12.1019345 L2.92789983,3.10724721 L11.9553896,3.10724721 L11.9553896,7.79253573 Z M6.17113518,7.39786706 C6.78155516,7.39786706 7.27639833,6.90302389 7.27639833,6.2926039 C7.27639833,5.68218392 6.78155516,5.18734075 6.17113518,5.18734075 C5.56071519,5.18734075 5.06587202,5.68218392 5.06587202,6.2926039 C5.06587202,6.90302389 5.56071519,7.39786706 6.17113518,7.39786706 Z M1.67953298,5.37777641 C1.67953298,5.83988139 1.30355671,6.2144915 0.839766489,6.2144915 C0.375976264,6.2144915 0,5.83988139 0,5.37777641 L0,0.919320454 C0,0.463219354 0.366621196,0.0911430382 0.824308074,0.0827471327 L5.32722404,0.00014468326 C5.79093568,-0.00836174181 6.17376921,0.359289072 6.18230666,0.821315759 C6.1908441,1.28334245 5.82185251,1.6647849 5.35814087,1.67329133 L1.67953298,1.74077249 L1.67953298,5.37777641 Z M13.320467,9.62222359 C13.320467,9.16011861 13.6964433,8.7855085 14.1602335,8.7855085 C14.6240237,8.7855085 15,9.16011861 15,9.62222359 L15,14.0806795 C15,14.5367806 14.6333788,14.908857 14.1756919,14.9172529 L9.67277596,14.9998553 C9.20906432,15.0083617 8.82623079,14.6407109 8.81769334,14.1786842 C8.8091559,13.7166576 9.17814749,13.3352151 9.64185913,13.3267087 L13.320467,13.2592275 L13.320467,9.62222359 Z" id="Combined-Shape" fill="#3E436A" fill-rule="nonzero"></path>
    </g>
</svg>