<?xml version="1.0" encoding="UTF-8"?>
<svg width="20px" height="20px" viewBox="0 0 20 20" version="1.1" xmlns="http://www.w3.org/2000/svg" xmlns:xlink="http://www.w3.org/1999/xlink">
    <!-- Generator: Sketch 55.1 (78136) - https://sketchapp.com -->
    <title>Polaris-icon/Major/2 Tone/Circle Alert</title>
    <desc>Created with Sketch.</desc>
    <g id="Symbols" stroke="none" stroke-width="1" fill="none" fill-rule="evenodd">
        <g id="Polaris-icon/Major/2-Tone/Circle-Alert">
            <circle id="Fill" fill="#FFFFFF" cx="10" cy="10" r="9"></circle>
            <g id="Icon" fill="#9C6F19">
                <path d="M10,0 C4.486,0 0,4.486 0,10 C0,15.514 4.486,20 10,20 C15.514,20 20,15.514 20,10 C20,4.486 15.514,0 10,0 M10,18 C5.589,18 2,14.411 2,10 C2,5.589 5.589,2 10,2 C14.411,2 18,5.589 18,10 C18,14.411 14.411,18 10,18 M10,11 C10.553,11 11,10.553 11,10 L11,6 C11,5.447 10.553,5 10,5 C9.447,5 9,5.447 9,6 L9,10 C9,10.553 9.447,11 10,11 M10,12.9004 C9.393,12.9004 8.9,13.3924 8.9,14.0004 C8.9,14.6074 9.393,15.0994 10,15.0994 C10.607,15.0994 11.1,14.6074 11.1,14.0004 C11.1,13.3924 10.607,12.9004 10,12.9004" id="Mask"></path>
            </g>
        </g>
    </g>
</svg>