<?xml version="1.0" encoding="UTF-8"?>
<svg width="14px" height="14px" viewBox="0 0 14 14" version="1.1" xmlns="http://www.w3.org/2000/svg" xmlns:xlink="http://www.w3.org/1999/xlink">
    <!-- Generator: Sketch 55.1 (78136) - https://sketchapp.com -->
    <title>Group 24</title>
    <desc>Created with Sketch.</desc>
    <g id="Manual-Tools" stroke="none" stroke-width="1" fill="none" fill-rule="evenodd">
        <g id="Group-24" transform="translate(-3.000000, -3.000000)">
            <path d="M7.5,9 L6.5,9 C6.22385763,9 6,8.77614237 6,8.5 L6,7 C6,4.790861 7.790861,3 10,3 C12.209139,3 14,4.790861 14,7 L14,8.5 C14,8.77614237 13.7761424,9 13.5,9 L12.5,9 C12.2238576,9 12,8.77614237 12,8.5 L12,7 C12,5.8954305 11.1045695,5 10,5 C8.8954305,5 8,5.8954305 8,7 L8,8.5 C8,8.77614237 7.77614237,9 7.5,9 Z M12.5,11 L13.5,11 C13.7761424,11 14,11.2238576 14,11.5 L14,13 C14,15.209139 12.209139,17 10,17 C7.790861,17 6,15.209139 6,13 L6,11.5 C6,11.2238576 6.22385763,11 6.5,11 L7.5,11 C7.77614237,11 8,11.2238576 8,11.5 L8,13 C8,14.1045695 8.8954305,15 10,15 C11.1045695,15 12,14.1045695 12,13 L12,11.5 C12,11.2238576 12.2238576,11 12.5,11 Z M4.69669914,10.4999245 L3.98959236,10.4999245 C3.71346716,10.4999245 3.48966787,10.2761252 3.48966787,10 C3.48966787,9.7238748 3.71346716,9.50007551 3.98959236,9.50007551 L4.69669914,9.50007551 C4.97282434,9.50007551 5.19662364,9.7238748 5.19662364,10 C5.19662364,10.1382394 5.1407622,10.2630437 5.05025253,10.3535534 C4.95974286,10.4440631 4.83493852,10.4999245 4.69669914,10.4999245 Z M4.34314575,12.1213203 L4.69669914,11.767767 C4.89186061,11.5726055 5.20864445,11.5726055 5.40380592,11.767767 C5.59896739,11.9629284 5.59896739,12.2797123 5.40380592,12.4748737 L5.05025253,12.8284271 C4.85509106,13.0235886 4.53830722,13.0235886 4.34314575,12.8284271 C4.14798428,12.6332657 4.14798428,12.3164818 4.34314575,12.1213203 Z M5.40380592,7.52512627 C5.59896739,7.72028774 5.59896739,8.03707158 5.40380592,8.23223305 C5.20864445,8.42739452 4.89186061,8.42739452 4.69669914,8.23223305 L4.34314575,7.87867966 C4.14798428,7.68351818 4.14798428,7.36673435 4.34314575,7.17157288 C4.53830722,6.9764114 4.85509106,6.9764114 5.05025253,7.17157288 L5.40380592,7.52512627 Z M15.3033009,9.50007551 L16.0104076,9.50007551 C16.2865328,9.50007551 16.5103321,9.7238748 16.5103321,10 C16.5103321,10.1382394 16.4544707,10.2630437 16.363961,10.3535534 C16.2734514,10.4440631 16.148647,10.4999245 16.0104076,10.4999245 L15.3033009,10.4999245 C15.0271757,10.4999245 14.8033764,10.2761252 14.8033764,10 C14.8033764,9.7238748 15.0271757,9.50007551 15.3033009,9.50007551 Z M14.5961941,11.767767 C14.7913555,11.5726055 15.1081394,11.5726055 15.3033009,11.767767 L15.6568542,12.1213203 C15.8520157,12.3164818 15.8520157,12.6332657 15.6568542,12.8284271 C15.4616928,13.0235886 15.1449089,13.0235886 14.9497475,12.8284271 L14.5961941,12.4748737 C14.4010326,12.2797123 14.4010326,11.9629284 14.5961941,11.767767 Z M14.9497475,7.17157288 C15.1449089,6.9764114 15.4616928,6.9764114 15.6568542,7.17157288 C15.8520157,7.36673435 15.8520157,7.68351818 15.6568542,7.87867966 L15.3033009,8.23223305 C15.1081394,8.42739452 14.7913555,8.42739452 14.5961941,8.23223305 C14.4010326,8.03707158 14.4010326,7.72028774 14.5961941,7.52512627 L14.9497475,7.17157288 Z" id="Shape" fill="#3E436A" fill-rule="nonzero" transform="translate(10.000000, 10.000000) rotate(45.000000) translate(-10.000000, -10.000000) "></path>
            <g id="1994315" transform="translate(10.000000, 10.000000) rotate(-45.000000) translate(-10.000000, -10.000000) translate(4.000000, 4.000000)"></g>
        </g>
    </g>
</svg>