<?xml version="1.0" encoding="UTF-8"?>
<svg width="24px" height="24px" viewBox="0 0 24 24" version="1.1" xmlns="http://www.w3.org/2000/svg" xmlns:xlink="http://www.w3.org/1999/xlink">
    <!-- Generator: Sketch 55.1 (78136) - https://sketchapp.com -->
    <title>icon-keyword-setup</title>
    <desc>Created with Sketch.</desc>
    <g id="Dashboard" stroke="none" stroke-width="1" fill="none" fill-rule="evenodd">
        <g id="icon-keyword-setup" fill="#FFFFFF" fill-rule="nonzero">
            <path d="M10.9603163,21.5045676 C6.4933529,21.008046 2.9563537,17.4299565 2.52318937,12.94417 L0.681524101,12.8923367 L0.74154247,10.7598477 L2.55377166,10.8108524 C3.10196591,6.45455343 6.58505404,3.01187971 10.9603163,2.52555107 L10.9603163,0.600511713 L13.0936497,0.600511713 L13.0936497,2.52555107 C17.4817729,3.01330924 20.9724692,6.47481812 21.5049524,10.8492915 L23.4105784,10.9029249 L23.35056,13.0354139 L21.526838,12.9840856 C21.0766094,17.4511681 17.5473557,21.0095196 13.0936497,21.5045676 L13.0936497,23.2715607 L10.9603163,23.2715607 L10.9603163,21.5045676 Z M10.9603163,18.814644 L10.9603163,17.6724876 L13.0936497,17.6724876 L13.0936497,18.814644 C16.0975939,18.3472042 18.4585503,15.9368211 18.8512324,12.9087814 L18.2669429,12.8923367 L18.3269612,10.7598477 L18.7969558,10.7730756 C18.2750852,7.90987483 15.9814897,5.66484769 13.0936497,5.21547469 L13.0936497,6.1995848 L10.9603163,6.1995848 L10.9603163,5.21547469 C8.0344899,5.6707587 5.71864407,7.96924736 5.23733866,10.8863808 L5.82515961,10.9029249 L5.76514124,13.0354139 L5.21808282,13.020017 C5.65347915,15.9957084 7.99324885,18.3529425 10.9603163,18.814644 Z M15.3625139,9.67721956 L14.1625139,14.3147197 L12.5750138,14.3147197 L11.8500138,11.260553 L11.7708471,11.260553 L11.0541804,14.3147197 L9.49168036,14.3147197 L8.28334694,9.67721956 L9.77501369,9.67721956 L10.3541804,12.8563864 L10.433347,12.8563864 L11.133347,9.67721956 L12.5375138,9.67721956 L13.2458471,12.8563864 L13.3250138,12.8563864 L13.9041805,9.67721956 L15.3625139,9.67721956 Z" id="Combined-Shape"></path>
        </g>
    </g>
</svg>