<?xml version="1.0" encoding="UTF-8"?>
<svg width="16px" height="13px" viewBox="0 0 16 13" version="1.1" xmlns="http://www.w3.org/2000/svg" xmlns:xlink="http://www.w3.org/1999/xlink">
    <!-- Generator: Sketch 55.1 (78136) - https://sketchapp.com -->
    <title>Path</title>
    <desc>Created with Sketch.</desc>
    <g id="-----Social-Signal-Building" stroke="none" stroke-width="1" fill="none" fill-rule="evenodd">
        <path d="M16,1.53891474 C15.4113026,1.79993519 14.7786532,1.97634779 14.1146348,2.05568958 C14.7924064,1.64950175 15.3128644,1.00634176 15.5579648,0.240014763 C14.9237353,0.616069096 14.2212078,0.88920145 13.4734994,1.03641675 C12.8746772,0.398581318 12.0215662,0 11.0774498,0 C9.26453781,0 7.79475475,1.46940291 7.79475475,3.28180108 C7.79475475,3.53901826 7.82384137,3.78950661 7.87979075,4.02969691 C5.15161491,3.89283817 2.73285782,2.58627317 1.11383737,0.600739046 C0.831281319,1.0854495 0.669402687,1.64920919 0.669402687,2.25065038 C0.669402687,3.38922846 1.24897034,4.39375636 2.12976334,4.98226647 C1.59163101,4.96523958 1.08551154,4.81761471 0.642891106,4.57180729 C0.642657012,4.58549902 0.642657012,4.59924925 0.642657012,4.613058 C0.642657012,6.20317041 1.77416877,7.52962942 3.27584769,7.83108137 C3.00037309,7.90609333 2.71038443,7.9461738 2.41097334,7.9461738 C2.19946596,7.9461738 1.99381104,7.92563617 1.79342331,7.88731106 C2.21111233,9.19118458 3.42338783,10.1400094 4.85981199,10.1665151 C3.73637661,11.0467058 2.32096272,11.5713797 0.783057169,11.5713797 C0.518116976,11.5713797 0.256805296,11.5558741 0,11.5255651 C1.45269396,12.4567194 3.17817038,13 5.03193241,13 C11.0697831,13 14.3714986,7.99918532 14.3714986,3.66236081 C14.3714986,3.5200605 14.3683383,3.37852083 14.3620176,3.23780032 C15.0033286,2.77509024 15.5598961,2.19705371 16,1.53891474" id="Path" fill="#55ACEE" fill-rule="nonzero"></path>
    </g>
</svg>