<?xml version="1.0" encoding="UTF-8"?>
<svg width="17px" height="10px" viewBox="0 0 17 10" version="1.1" xmlns="http://www.w3.org/2000/svg" xmlns:xlink="http://www.w3.org/1999/xlink">
    <!-- Generator: Sketch 55.1 (78136) - https://sketchapp.com -->
    <title>Combined Shape</title>
    <desc>Created with Sketch.</desc>
    <g id="-----Social-Signal-Building" stroke="none" stroke-width="1" fill="none" fill-rule="evenodd">
        <g id="Social-Signal-Building" transform="translate(-1262.000000, -495.000000)" fill="#333333" fill-rule="nonzero">
            <g id="Group" transform="translate(272.000000, 218.000000)">
                <g id="Resource-list-item" transform="translate(0.000000, 234.000000)">
                    <g id="Group-4" transform="translate(823.000000, 32.000000)">
                        <g id="button/share-button" transform="translate(160.000000, 0.000000)">
                            <g id="Digg-new" transform="translate(7.000000, 11.000000)">
                                <path d="M2.72,2.30926389e-14 L4.42,2.30926389e-14 L4.42,8 L-1.15463195e-14,8 L-1.15463195e-14,2.33333333 L2.72,2.33333333 L2.72,2.30926389e-14 Z M2.72,6.66666667 L2.72,3.66666667 L1.7,3.66666667 L1.7,6.66666667 L2.72,6.66666667 Z M5.1,2.33333333 L6.8,2.33333333 L6.8,8 L5.1,8 L5.1,2.33333333 Z M5.1,0 L6.8,0 L6.8,1.66666667 L5.1,1.66666667 L5.1,0 Z M7.48,2.33333333 L11.9,2.33333333 L11.9,10 L7.48,10 L7.48,8.66666667 L10.2,8.66666667 L10.2,8 L7.48,8 L7.48,2.33333333 Z M10.2,6.66666667 L10.2,3.66666667 L9.18,3.66666667 L9.18,6.66666667 L10.2,6.66666667 Z M12.58,2.33333333 L17,2.33333333 L17,10 L12.58,10 L12.58,8.66666667 L15.3,8.66666667 L15.3,8 L12.58,8 L12.58,2.33333333 Z M15.3,6.66666667 L15.3,3.66666667 L14.28,3.66666667 L14.28,6.66666667 L15.3,6.66666667 Z" id="Combined-Shape"></path>
                            </g>
                        </g>
                    </g>
                </g>
            </g>
        </g>
    </g>
</svg>