<?xml version="1.0" encoding="UTF-8"?>
<svg width="21px" height="21px" viewBox="0 0 21 21" version="1.1" xmlns="http://www.w3.org/2000/svg" xmlns:xlink="http://www.w3.org/1999/xlink">
    <!-- Generator: Sketch 55.1 (78136) - https://sketchapp.com -->
    <title>Shape</title>
    <desc>Created with Sketch.</desc>
    <g id="Dashboard" stroke="none" stroke-width="1" fill="none" fill-rule="evenodd">
        <path d="M4.92172897,8.65826443 C3.62651029,8.82868794 2.27164338,8.41541093 1.27466584,7.42269398 C0.260645957,6.40867409 -0.148370468,5.01972248 0.0476165688,3.70320087 C0.0817012709,3.49443207 0.337336537,3.40922031 0.486457108,3.55834088 L1.80723931,4.8748625 C2.42928513,5.5011689 3.44330501,5.5011689 4.06961141,4.8748625 L4.87912309,4.06535083 C5.50542949,3.44330501 5.50542949,2.42928513 4.87912309,1.80297873 L3.56260147,0.486457108 C3.4134809,0.337336537 3.49869265,0.0774406832 3.70746145,0.0476165688 C5.02398307,-0.148370468 6.41293468,0.260645957 7.42695457,1.27466584 C8.41967152,2.27164338 8.83294853,3.62651029 8.66252502,4.92172897 C8.58583444,5.48838714 8.78182148,6.06356649 9.18657731,6.46832232 L10.213379,7.49512397 L9.24622554,8.45801681 L7.84875276,7.06054402 C7.63146278,6.84325405 7.277834,6.84325405 7.06054402,7.06054402 C6.84325405,7.277834 6.84325405,7.63146278 7.06054402,7.84875276 L8.45801681,9.24196495 L7.49086339,10.2048578 L6.46832232,9.18231673 C6.06356649,8.77756089 5.49264773,8.58157385 4.92172897,8.65826443 Z M13.1105786,10.3923236 L19.0242745,16.3060195 C19.7698773,17.0558829 19.7698773,18.2701504 19.0200139,19.0200139 C18.2701504,19.7698773 17.0558829,19.7741379 16.3060195,19.0242745 L10.3880631,13.1063181 L11.3552165,12.1434252 L17.0984888,17.8866975 C17.3157788,18.1039875 17.6694075,18.1039875 17.8866975,17.8866975 C18.1039875,17.6694075 18.1039875,17.3157788 17.8866975,17.0984888 L12.1434252,11.3552165 L13.1105786,10.3923236 Z M15.3303449,6.55779467 L8.3898474,13.4727286 L9.66376314,14.7466443 L4.63626959,19.7741379 C3.588165,20.8222425 1.89245107,20.8222425 0.84434648,19.7741379 C-0.203758109,18.7260333 -0.203758109,17.0303194 0.84434648,15.9822148 L5.87184004,10.9547212 L7.12019225,12.1988129 L14.0564291,5.28387893 L14.0564291,2.73178686 L19.1606133,0.183955377 L20.434529,1.45787112 L17.8824369,6.55779467 L15.3303449,6.55779467 Z M3.29277012,18.2491994 L6.78236551,14.7623033 C7.01643677,14.5284131 7.01658355,14.1490554 6.78269335,13.9149841 C6.54880315,13.6809129 6.16944543,13.6807661 5.93537417,13.9146563 L2.44577878,17.4015524 C2.21170752,17.6354426 2.21156075,18.0148003 2.44545095,18.2488716 C2.67934115,18.4829429 3.05869886,18.4830896 3.29277012,18.2491994 Z" id="Shape" fill="#FFFFFF" fill-rule="nonzero"></path>
    </g>
</svg>