<?xml version="1.0" encoding="UTF-8"?>
<svg width="14px" height="14px" viewBox="0 0 14 14" version="1.1" xmlns="http://www.w3.org/2000/svg" xmlns:xlink="http://www.w3.org/1999/xlink">
    <!-- Generator: Sketch 55.1 (78136) - https://sketchapp.com -->
    <title>Combined Shape</title>
    <desc>Created with Sketch.</desc>
    <g id="-----Social-Signal-Building" stroke="none" stroke-width="1" fill="none" fill-rule="evenodd">
        <g id="Social-Signal-Building" transform="translate(-1223.000000, -492.000000)" fill="#006087" fill-rule="nonzero">
            <g id="Group" transform="translate(272.000000, 218.000000)">
                <g id="Resource-list-item" transform="translate(0.000000, 234.000000)">
                    <g id="Group-4" transform="translate(823.000000, 32.000000)">
                        <g id="button/share-button" transform="translate(120.000000, 0.000000)">
                            <g id="linkedin" transform="translate(8.000000, 8.000000)">
                                <path d="M12.9060335,2.13162821e-14 C13.4709033,2.13162821e-14 13.9311463,0.450410491 13.9311463,1.00576818 L13.9311463,12.9472667 C13.9311463,13.5031089 13.4709033,13.9541976 12.9060335,13.9541976 L1.1053124,13.9541976 C0.541404153,13.9541976 0.083276916,13.5031089 0.083276916,12.9472667 L0.083276916,1.00576818 C0.083276916,0.450410491 0.541404153,2.13162821e-14 1.1053124,2.13162821e-14 L12.9060335,2.13162821e-14 Z M3.16371188,1.92112478 C2.50556258,1.92112478 1.97271553,2.45884591 1.97271553,3.12079816 C1.97271553,3.78323494 2.50556258,4.32114987 3.16371188,4.32114987 C3.82051493,4.32114987 4.35403516,3.78323494 4.35403516,3.12079816 C4.35403516,2.45884591 3.82051493,1.92112478 3.16371188,1.92112478 Z M2.13638739,5.23146746 L2.13638739,11.8908176 L4.19026711,11.8908176 L4.19026711,5.23146746 L2.13638739,5.23146746 Z M5.47848577,5.23146746 L5.47848577,11.8908176 L7.53092307,11.8908176 L7.53092307,8.59646408 C7.53092307,7.72781528 7.69459493,6.88649344 8.76346244,6.88649344 C9.81665519,6.88649344 9.83079145,7.87976098 9.83079145,8.65237777 L9.83079145,11.8908176 L11.8832287,11.8908176 L11.8832287,8.23801563 C11.8832287,6.44499813 11.4992441,5.06576137 9.41939995,5.06576137 C8.42025159,5.06576137 7.75017792,5.6178243 7.47610933,6.14130052 L7.44879864,6.14130052 L7.44879864,5.23146746 L5.47848577,5.23146746 Z" id="Combined-Shape"></path>
                            </g>
                        </g>
                    </g>
                </g>
            </g>
        </g>
    </g>
</svg>