<?xml version="1.0" encoding="UTF-8"?>
<svg width="13px" height="13px" viewBox="0 0 13 13" version="1.1" xmlns="http://www.w3.org/2000/svg" xmlns:xlink="http://www.w3.org/1999/xlink">
    <!-- Generator: Sketch 55.1 (78136) - https://sketchapp.com -->
    <title>Combined Shape</title>
    <desc>Created with Sketch.</desc>
    <g id="Manual-Tools" stroke="none" stroke-width="1" fill="none" fill-rule="evenodd">
        <path d="M6.90625,11.375 L0.818012115,11.375 C0.366577148,11.375 5.25228464e-14,11.0082836 5.69290679e-14,10.5559161 L1.5282267e-13,0.7109375 C1.5282267e-13,0.317789062 0.3185,-1.77635684e-14 0.7109375,-1.77635684e-14 L10.6640625,-1.77635684e-14 C11.0565,-1.77635684e-14 11.375,0.317789062 11.375,0.7109375 L11.375,6.90625 L12.1868801,6.90625 C12.6359538,6.90625 13,7.27029619 13,7.71936992 L13,12.1868801 C13,12.6359538 12.6359538,13 12.1868801,13 L7.71936992,13 C7.27029619,13 6.90625,12.6359538 6.90625,12.1868801 L6.90625,11.375 Z M9.953125,6.90625 L9.953125,6.69276562 L8.53125,5.27089062 L5.47919531,8.32294531 C5.24032031,8.56253125 4.86494531,8.60092187 4.58199219,8.4118125 L2.84375,7.25298437 L1.421875,8.20066406 L1.421875,9.953125 L6.90625,9.953125 L6.90625,7.71936992 C6.90625,7.27029619 7.27029619,6.90625 7.71936992,6.90625 L9.953125,6.90625 Z M5.6875,3.91015625 C5.6875,3.3215 5.21046094,2.84375 4.62109375,2.84375 C4.03172656,2.84375 3.5546875,3.3215 3.5546875,3.91015625 C3.5546875,4.4988125 4.03172656,4.9765625 4.62109375,4.9765625 C5.21046094,4.9765625 5.6875,4.4988125 5.6875,3.91015625 Z M10.346283,11.984375 L10.346283,8.79626465 L11.5043335,8.79626465 L11.5043335,7.97702026 L8.17459106,7.97702026 L8.17459106,8.79626465 L9.3298645,8.79626465 L9.3298645,11.984375 L10.346283,11.984375 Z" id="Combined-Shape" fill="#43486F"></path>
    </g>
</svg>