<?xml version="1.0" encoding="UTF-8"?>
<svg width="20px" height="20px" viewBox="0 0 20 20" version="1.1" xmlns="http://www.w3.org/2000/svg" xmlns:xlink="http://www.w3.org/1999/xlink">
    <!-- Generator: Sketch 55.1 (78136) - https://sketchapp.com -->
    <title>Icon</title>
    <desc>Created with Sketch.</desc>
    <defs>
        <path d="M6.7071,6.2928 C6.4841,6.0708 6.1771,5.9678 5.8551,6.0108 C5.5431,6.0558 5.2701,6.2468 5.1201,6.5248 L0.2541,15.5248 C0.2301,15.5678 0.2111,15.6128 0.1941,15.6578 C-0.2329,16.8288 0.0621,18.1548 0.9431,19.0358 C1.5571,19.6498 2.3851,19.9788 3.2251,19.9788 C3.5941,19.9788 3.9651,19.9148 4.3211,19.7848 C4.3661,19.7688 4.4101,19.7488 4.4531,19.7268 L13.4741,14.8808 C13.7521,14.7318 13.9431,14.4588 13.9891,14.1458 C14.0351,13.8328 13.9311,13.5168 13.7071,13.2928 L6.7071,6.2928 Z M3.5791,17.9258 C3.1501,18.0588 2.6771,17.9418 2.3571,17.6218 C2.0381,17.3028 1.9231,16.8298 2.0541,16.4018 L6.2411,8.6558 L11.3421,13.7558 L3.5791,17.9258 Z M15,4 C15.552,4 16,4.448 16,5 C16,5.553 16.447,6 17,6 C17.553,6 18,5.553 18,5 C18,4.448 18.448,4 19,4 C19.553,4 20,3.553 20,3 C20,2.447 19.553,2 19,2 C18.448,2 18,1.552 18,1 C18,0.447 17.553,0 17,0 C16.447,0 16,0.447 16,1 C16,1.552 15.552,2 15,2 C14.447,2 14,2.447 14,3 C14,3.553 14.447,4 15,4 M1,4 C1.552,4 2,4.448 2,5 C2,5.553 2.447,6 3,6 C3.553,6 4,5.553 4,5 C4,4.448 4.448,4 5,4 C5.553,4 6,3.553 6,3 C6,2.447 5.553,2 5,2 C4.448,2 4,1.552 4,1 C4,0.447 3.553,0 3,0 C2.447,0 2,0.447 2,1 C2,1.552 1.552,2 1,2 C0.447,2 0,2.447 0,3 C0,3.553 0.447,4 1,4 M19,16 C18.448,16 18,15.552 18,15 C18,14.447 17.553,14 17,14 C16.447,14 16,14.447 16,15 C16,15.552 15.552,16 15,16 C14.447,16 14,16.447 14,17 C14,17.553 14.447,18 15,18 C15.552,18 16,18.448 16,19 C16,19.553 16.447,20 17,20 C17.553,20 18,19.553 18,19 C18,18.448 18.448,18 19,18 C19.553,18 20,17.553 20,17 C20,16.447 19.553,16 19,16 M12,9 C12.256,9 12.512,8.902 12.707,8.707 L13.707,7.707 C14.098,7.316 14.098,6.684 13.707,6.293 C13.316,5.902 12.684,5.902 12.293,6.293 L11.293,7.293 C10.902,7.684 10.902,8.316 11.293,8.707 C11.488,8.902 11.744,9 12,9 M18.6836,9.0518 L15.6836,10.0518 C15.1606,10.2258 14.8766,10.7918 15.0516,11.3168 C15.1916,11.7358 15.5806,11.9998 15.9996,11.9998 C16.1046,11.9998 16.2106,11.9838 16.3166,11.9478 L19.3166,10.9478 C19.8396,10.7748 20.1226,10.2078 19.9486,9.6838 C19.7736,9.1598 19.2126,8.8768 18.6836,9.0518 M8.6836,4.9482 C8.7886,4.9832 8.8956,5.0002 8.9996,5.0002 C9.4186,5.0002 9.8086,4.7352 9.9486,4.3162 L10.9486,1.3162 C11.1226,0.7922 10.8396,0.2252 10.3166,0.0522 C9.7876,-0.1238 9.2266,0.1602 9.0516,0.6832 L8.0516,3.6832 C7.8766,4.2082 8.1606,4.7742 8.6836,4.9482" id="path-1"></path>
    </defs>
    <g id="Settings" stroke="none" stroke-width="1" fill="none" fill-rule="evenodd">
        <mask id="mask-2" fill="white">
            <use xlink:href="#path-1"></use>
        </mask>
        <use id="Icon" fill="#C4CDD5" xlink:href="#path-1"></use>
    </g>
</svg>